<?xml version="1.0" encoding="utf-8" standalone="no"?>
<!DOCTYPE svg PUBLIC "-//W3C//DTD SVG 1.1//EN"
  "http://www.w3.org/Graphics/SVG/1.1/DTD/svg11.dtd">
<svg xmlns:xlink="http://www.w3.org/1999/xlink" width="1407.82375pt" height="275.83625pt" viewBox="0 0 1407.82375 275.83625" xmlns="http://www.w3.org/2000/svg" version="1.1">
 <metadata>
  <rdf:RDF xmlns:dc="http://purl.org/dc/elements/1.1/" xmlns:cc="http://creativecommons.org/ns#" xmlns:rdf="http://www.w3.org/1999/02/22-rdf-syntax-ns#">
   <cc:Work>
    <dc:type rdf:resource="http://purl.org/dc/dcmitype/StillImage"/>
    <dc:date>2026-04-27T11:39:23.170963</dc:date>
    <dc:format>image/svg+xml</dc:format>
    <dc:creator>
     <cc:Agent>
      <dc:title>Matplotlib v3.10.8, https://matplotlib.org/</dc:title>
     </cc:Agent>
    </dc:creator>
   </cc:Work>
  </rdf:RDF>
 </metadata>
 <defs>
  <style type="text/css">*{stroke-linejoin: round; stroke-linecap: butt}</style>
 </defs>
 <g id="figure_1">
  <g id="patch_1">
   <path d="M 0 275.83625 
L 1407.82375 275.83625 
L 1407.82375 0 
L 0 0 
z
" style="fill: #ffffff"/>
  </g>
  <g id="axes_1">
   <g id="patch_2">
    <path d="M 50.14375 238.28 
L 269.59175 238.28 
L 269.59175 61.574879 
L 50.14375 61.574879 
z
" style="fill: #ffffff"/>
   </g>
   <g id="matplotlib.axis_1">
    <g id="xtick_1">
     <g id="line2d_1">
      <path d="M 51.806235 238.28 
L 51.806235 61.574879 
" clip-path="url(#p55437057c9)" style="fill: none; stroke: #b0b0b0; stroke-opacity: 0.3; stroke-width: 0.8; stroke-linecap: square"/>
     </g>
     <g id="line2d_2">
      <defs>
       <path id="m4f6e4b8db4" d="M 0 0 
L 0 3.5 
" style="stroke: #000000; stroke-width: 0.8"/>
      </defs>
      <g>
       <use xlink:href="#m4f6e4b8db4" x="51.806235" y="238.28" style="stroke: #000000; stroke-width: 0.8"/>
      </g>
     </g>
     <g id="text_1">
      <!-- 0 -->
      <g transform="translate(48.624985 252.878437) scale(0.1 -0.1)">
       <defs>
        <path id="DejaVuSans-30" d="M 2034 4250 
Q 1547 4250 1301 3770 
Q 1056 3291 1056 2328 
Q 1056 1369 1301 889 
Q 1547 409 2034 409 
Q 2525 409 2770 889 
Q 3016 1369 3016 2328 
Q 3016 3291 2770 3770 
Q 2525 4250 2034 4250 
z
M 2034 4750 
Q 2819 4750 3233 4129 
Q 3647 3509 3647 2328 
Q 3647 1150 3233 529 
Q 2819 -91 2034 -91 
Q 1250 -91 836 529 
Q 422 1150 422 2328 
Q 422 3509 836 4129 
Q 1250 4750 2034 4750 
z
" transform="scale(0.015625)"/>
       </defs>
       <use xlink:href="#DejaVuSans-30"/>
      </g>
     </g>
    </g>
    <g id="xtick_2">
     <g id="line2d_3">
      <path d="M 93.368356 238.28 
L 93.368356 61.574879 
" clip-path="url(#p55437057c9)" style="fill: none; stroke: #b0b0b0; stroke-opacity: 0.3; stroke-width: 0.8; stroke-linecap: square"/>
     </g>
     <g id="line2d_4">
      <g>
       <use xlink:href="#m4f6e4b8db4" x="93.368356" y="238.28" style="stroke: #000000; stroke-width: 0.8"/>
      </g>
     </g>
     <g id="text_2">
      <!-- 5 -->
      <g transform="translate(90.187106 252.878437) scale(0.1 -0.1)">
       <defs>
        <path id="DejaVuSans-35" d="M 691 4666 
L 3169 4666 
L 3169 4134 
L 1269 4134 
L 1269 2991 
Q 1406 3038 1543 3061 
Q 1681 3084 1819 3084 
Q 2600 3084 3056 2656 
Q 3513 2228 3513 1497 
Q 3513 744 3044 326 
Q 2575 -91 1722 -91 
Q 1428 -91 1123 -41 
Q 819 9 494 109 
L 494 744 
Q 775 591 1075 516 
Q 1375 441 1709 441 
Q 2250 441 2565 725 
Q 2881 1009 2881 1497 
Q 2881 1984 2565 2268 
Q 2250 2553 1709 2553 
Q 1456 2553 1204 2497 
Q 953 2441 691 2322 
L 691 4666 
z
" transform="scale(0.015625)"/>
       </defs>
       <use xlink:href="#DejaVuSans-35"/>
      </g>
     </g>
    </g>
    <g id="xtick_3">
     <g id="line2d_5">
      <path d="M 134.930477 238.28 
L 134.930477 61.574879 
" clip-path="url(#p55437057c9)" style="fill: none; stroke: #b0b0b0; stroke-opacity: 0.3; stroke-width: 0.8; stroke-linecap: square"/>
     </g>
     <g id="line2d_6">
      <g>
       <use xlink:href="#m4f6e4b8db4" x="134.930477" y="238.28" style="stroke: #000000; stroke-width: 0.8"/>
      </g>
     </g>
     <g id="text_3">
      <!-- 10 -->
      <g transform="translate(128.567977 252.878437) scale(0.1 -0.1)">
       <defs>
        <path id="DejaVuSans-31" d="M 794 531 
L 1825 531 
L 1825 4091 
L 703 3866 
L 703 4441 
L 1819 4666 
L 2450 4666 
L 2450 531 
L 3481 531 
L 3481 0 
L 794 0 
L 794 531 
z
" transform="scale(0.015625)"/>
       </defs>
       <use xlink:href="#DejaVuSans-31"/>
       <use xlink:href="#DejaVuSans-30" transform="translate(63.623047 0)"/>
      </g>
     </g>
    </g>
    <g id="xtick_4">
     <g id="line2d_7">
      <path d="M 176.492598 238.28 
L 176.492598 61.574879 
" clip-path="url(#p55437057c9)" style="fill: none; stroke: #b0b0b0; stroke-opacity: 0.3; stroke-width: 0.8; stroke-linecap: square"/>
     </g>
     <g id="line2d_8">
      <g>
       <use xlink:href="#m4f6e4b8db4" x="176.492598" y="238.28" style="stroke: #000000; stroke-width: 0.8"/>
      </g>
     </g>
     <g id="text_4">
      <!-- 15 -->
      <g transform="translate(170.130098 252.878437) scale(0.1 -0.1)">
       <use xlink:href="#DejaVuSans-31"/>
       <use xlink:href="#DejaVuSans-35" transform="translate(63.623047 0)"/>
      </g>
     </g>
    </g>
    <g id="xtick_5">
     <g id="line2d_9">
      <path d="M 218.05472 238.28 
L 218.05472 61.574879 
" clip-path="url(#p55437057c9)" style="fill: none; stroke: #b0b0b0; stroke-opacity: 0.3; stroke-width: 0.8; stroke-linecap: square"/>
     </g>
     <g id="line2d_10">
      <g>
       <use xlink:href="#m4f6e4b8db4" x="218.05472" y="238.28" style="stroke: #000000; stroke-width: 0.8"/>
      </g>
     </g>
     <g id="text_5">
      <!-- 20 -->
      <g transform="translate(211.69222 252.878437) scale(0.1 -0.1)">
       <defs>
        <path id="DejaVuSans-32" d="M 1228 531 
L 3431 531 
L 3431 0 
L 469 0 
L 469 531 
Q 828 903 1448 1529 
Q 2069 2156 2228 2338 
Q 2531 2678 2651 2914 
Q 2772 3150 2772 3378 
Q 2772 3750 2511 3984 
Q 2250 4219 1831 4219 
Q 1534 4219 1204 4116 
Q 875 4013 500 3803 
L 500 4441 
Q 881 4594 1212 4672 
Q 1544 4750 1819 4750 
Q 2544 4750 2975 4387 
Q 3406 4025 3406 3419 
Q 3406 3131 3298 2873 
Q 3191 2616 2906 2266 
Q 2828 2175 2409 1742 
Q 1991 1309 1228 531 
z
" transform="scale(0.015625)"/>
       </defs>
       <use xlink:href="#DejaVuSans-32"/>
       <use xlink:href="#DejaVuSans-30" transform="translate(63.623047 0)"/>
      </g>
     </g>
    </g>
    <g id="xtick_6">
     <g id="line2d_11">
      <path d="M 259.616841 238.28 
L 259.616841 61.574879 
" clip-path="url(#p55437057c9)" style="fill: none; stroke: #b0b0b0; stroke-opacity: 0.3; stroke-width: 0.8; stroke-linecap: square"/>
     </g>
     <g id="line2d_12">
      <g>
       <use xlink:href="#m4f6e4b8db4" x="259.616841" y="238.28" style="stroke: #000000; stroke-width: 0.8"/>
      </g>
     </g>
     <g id="text_6">
      <!-- 25 -->
      <g transform="translate(253.254341 252.878437) scale(0.1 -0.1)">
       <use xlink:href="#DejaVuSans-32"/>
       <use xlink:href="#DejaVuSans-35" transform="translate(63.623047 0)"/>
      </g>
     </g>
    </g>
    <g id="text_7">
     <!-- Forecast step -->
     <g transform="translate(126.3115 266.556562) scale(0.1 -0.1)">
      <defs>
       <path id="DejaVuSans-46" d="M 628 4666 
L 3309 4666 
L 3309 4134 
L 1259 4134 
L 1259 2759 
L 3109 2759 
L 3109 2228 
L 1259 2228 
L 1259 0 
L 628 0 
L 628 4666 
z
" transform="scale(0.015625)"/>
       <path id="DejaVuSans-6f" d="M 1959 3097 
Q 1497 3097 1228 2736 
Q 959 2375 959 1747 
Q 959 1119 1226 758 
Q 1494 397 1959 397 
Q 2419 397 2687 759 
Q 2956 1122 2956 1747 
Q 2956 2369 2687 2733 
Q 2419 3097 1959 3097 
z
M 1959 3584 
Q 2709 3584 3137 3096 
Q 3566 2609 3566 1747 
Q 3566 888 3137 398 
Q 2709 -91 1959 -91 
Q 1206 -91 779 398 
Q 353 888 353 1747 
Q 353 2609 779 3096 
Q 1206 3584 1959 3584 
z
" transform="scale(0.015625)"/>
       <path id="DejaVuSans-72" d="M 2631 2963 
Q 2534 3019 2420 3045 
Q 2306 3072 2169 3072 
Q 1681 3072 1420 2755 
Q 1159 2438 1159 1844 
L 1159 0 
L 581 0 
L 581 3500 
L 1159 3500 
L 1159 2956 
Q 1341 3275 1631 3429 
Q 1922 3584 2338 3584 
Q 2397 3584 2469 3576 
Q 2541 3569 2628 3553 
L 2631 2963 
z
" transform="scale(0.015625)"/>
       <path id="DejaVuSans-65" d="M 3597 1894 
L 3597 1613 
L 953 1613 
Q 991 1019 1311 708 
Q 1631 397 2203 397 
Q 2534 397 2845 478 
Q 3156 559 3463 722 
L 3463 178 
Q 3153 47 2828 -22 
Q 2503 -91 2169 -91 
Q 1331 -91 842 396 
Q 353 884 353 1716 
Q 353 2575 817 3079 
Q 1281 3584 2069 3584 
Q 2775 3584 3186 3129 
Q 3597 2675 3597 1894 
z
M 3022 2063 
Q 3016 2534 2758 2815 
Q 2500 3097 2075 3097 
Q 1594 3097 1305 2825 
Q 1016 2553 972 2059 
L 3022 2063 
z
" transform="scale(0.015625)"/>
       <path id="DejaVuSans-63" d="M 3122 3366 
L 3122 2828 
Q 2878 2963 2633 3030 
Q 2388 3097 2138 3097 
Q 1578 3097 1268 2742 
Q 959 2388 959 1747 
Q 959 1106 1268 751 
Q 1578 397 2138 397 
Q 2388 397 2633 464 
Q 2878 531 3122 666 
L 3122 134 
Q 2881 22 2623 -34 
Q 2366 -91 2075 -91 
Q 1284 -91 818 406 
Q 353 903 353 1747 
Q 353 2603 823 3093 
Q 1294 3584 2113 3584 
Q 2378 3584 2631 3529 
Q 2884 3475 3122 3366 
z
" transform="scale(0.015625)"/>
       <path id="DejaVuSans-61" d="M 2194 1759 
Q 1497 1759 1228 1600 
Q 959 1441 959 1056 
Q 959 750 1161 570 
Q 1363 391 1709 391 
Q 2188 391 2477 730 
Q 2766 1069 2766 1631 
L 2766 1759 
L 2194 1759 
z
M 3341 1997 
L 3341 0 
L 2766 0 
L 2766 531 
Q 2569 213 2275 61 
Q 1981 -91 1556 -91 
Q 1019 -91 701 211 
Q 384 513 384 1019 
Q 384 1609 779 1909 
Q 1175 2209 1959 2209 
L 2766 2209 
L 2766 2266 
Q 2766 2663 2505 2880 
Q 2244 3097 1772 3097 
Q 1472 3097 1187 3025 
Q 903 2953 641 2809 
L 641 3341 
Q 956 3463 1253 3523 
Q 1550 3584 1831 3584 
Q 2591 3584 2966 3190 
Q 3341 2797 3341 1997 
z
" transform="scale(0.015625)"/>
       <path id="DejaVuSans-73" d="M 2834 3397 
L 2834 2853 
Q 2591 2978 2328 3040 
Q 2066 3103 1784 3103 
Q 1356 3103 1142 2972 
Q 928 2841 928 2578 
Q 928 2378 1081 2264 
Q 1234 2150 1697 2047 
L 1894 2003 
Q 2506 1872 2764 1633 
Q 3022 1394 3022 966 
Q 3022 478 2636 193 
Q 2250 -91 1575 -91 
Q 1294 -91 989 -36 
Q 684 19 347 128 
L 347 722 
Q 666 556 975 473 
Q 1284 391 1588 391 
Q 1994 391 2212 530 
Q 2431 669 2431 922 
Q 2431 1156 2273 1281 
Q 2116 1406 1581 1522 
L 1381 1569 
Q 847 1681 609 1914 
Q 372 2147 372 2553 
Q 372 3047 722 3315 
Q 1072 3584 1716 3584 
Q 2034 3584 2315 3537 
Q 2597 3491 2834 3397 
z
" transform="scale(0.015625)"/>
       <path id="DejaVuSans-74" d="M 1172 4494 
L 1172 3500 
L 2356 3500 
L 2356 3053 
L 1172 3053 
L 1172 1153 
Q 1172 725 1289 603 
Q 1406 481 1766 481 
L 2356 481 
L 2356 0 
L 1766 0 
Q 1100 0 847 248 
Q 594 497 594 1153 
L 594 3053 
L 172 3053 
L 172 3500 
L 594 3500 
L 594 4494 
L 1172 4494 
z
" transform="scale(0.015625)"/>
       <path id="DejaVuSans-20" transform="scale(0.015625)"/>
       <path id="DejaVuSans-70" d="M 1159 525 
L 1159 -1331 
L 581 -1331 
L 581 3500 
L 1159 3500 
L 1159 2969 
Q 1341 3281 1617 3432 
Q 1894 3584 2278 3584 
Q 2916 3584 3314 3078 
Q 3713 2572 3713 1747 
Q 3713 922 3314 415 
Q 2916 -91 2278 -91 
Q 1894 -91 1617 61 
Q 1341 213 1159 525 
z
M 3116 1747 
Q 3116 2381 2855 2742 
Q 2594 3103 2138 3103 
Q 1681 3103 1420 2742 
Q 1159 2381 1159 1747 
Q 1159 1113 1420 752 
Q 1681 391 2138 391 
Q 2594 391 2855 752 
Q 3116 1113 3116 1747 
z
" transform="scale(0.015625)"/>
      </defs>
      <use xlink:href="#DejaVuSans-46"/>
      <use xlink:href="#DejaVuSans-6f" transform="translate(53.894531 0)"/>
      <use xlink:href="#DejaVuSans-72" transform="translate(115.076172 0)"/>
      <use xlink:href="#DejaVuSans-65" transform="translate(153.939453 0)"/>
      <use xlink:href="#DejaVuSans-63" transform="translate(215.462891 0)"/>
      <use xlink:href="#DejaVuSans-61" transform="translate(270.443359 0)"/>
      <use xlink:href="#DejaVuSans-73" transform="translate(331.722656 0)"/>
      <use xlink:href="#DejaVuSans-74" transform="translate(383.822266 0)"/>
      <use xlink:href="#DejaVuSans-20" transform="translate(423.03125 0)"/>
      <use xlink:href="#DejaVuSans-73" transform="translate(454.818359 0)"/>
      <use xlink:href="#DejaVuSans-74" transform="translate(506.917969 0)"/>
      <use xlink:href="#DejaVuSans-65" transform="translate(546.126953 0)"/>
      <use xlink:href="#DejaVuSans-70" transform="translate(607.650391 0)"/>
     </g>
    </g>
   </g>
   <g id="matplotlib.axis_2">
    <g id="ytick_1">
     <g id="line2d_13">
      <path d="M 50.14375 210.72067 
L 269.59175 210.72067 
" clip-path="url(#p55437057c9)" style="fill: none; stroke: #b0b0b0; stroke-opacity: 0.3; stroke-width: 0.8; stroke-linecap: square"/>
     </g>
     <g id="line2d_14">
      <defs>
       <path id="mbf263a33ee" d="M 0 0 
L -3.5 0 
" style="stroke: #000000; stroke-width: 0.8"/>
      </defs>
      <g>
       <use xlink:href="#mbf263a33ee" x="50.14375" y="210.72067" style="stroke: #000000; stroke-width: 0.8"/>
      </g>
     </g>
     <g id="text_8">
      <!-- 0.50 -->
      <g transform="translate(20.878125 214.519888) scale(0.1 -0.1)">
       <defs>
        <path id="DejaVuSans-2e" d="M 684 794 
L 1344 794 
L 1344 0 
L 684 0 
L 684 794 
z
" transform="scale(0.015625)"/>
       </defs>
       <use xlink:href="#DejaVuSans-30"/>
       <use xlink:href="#DejaVuSans-2e" transform="translate(63.623047 0)"/>
       <use xlink:href="#DejaVuSans-35" transform="translate(95.410156 0)"/>
       <use xlink:href="#DejaVuSans-30" transform="translate(159.033203 0)"/>
      </g>
     </g>
    </g>
    <g id="ytick_2">
     <g id="line2d_15">
      <path d="M 50.14375 169.96356 
L 269.59175 169.96356 
" clip-path="url(#p55437057c9)" style="fill: none; stroke: #b0b0b0; stroke-opacity: 0.3; stroke-width: 0.8; stroke-linecap: square"/>
     </g>
     <g id="line2d_16">
      <g>
       <use xlink:href="#mbf263a33ee" x="50.14375" y="169.96356" style="stroke: #000000; stroke-width: 0.8"/>
      </g>
     </g>
     <g id="text_9">
      <!-- 0.55 -->
      <g transform="translate(20.878125 173.762779) scale(0.1 -0.1)">
       <use xlink:href="#DejaVuSans-30"/>
       <use xlink:href="#DejaVuSans-2e" transform="translate(63.623047 0)"/>
       <use xlink:href="#DejaVuSans-35" transform="translate(95.410156 0)"/>
       <use xlink:href="#DejaVuSans-35" transform="translate(159.033203 0)"/>
      </g>
     </g>
    </g>
    <g id="ytick_3">
     <g id="line2d_17">
      <path d="M 50.14375 129.206451 
L 269.59175 129.206451 
" clip-path="url(#p55437057c9)" style="fill: none; stroke: #b0b0b0; stroke-opacity: 0.3; stroke-width: 0.8; stroke-linecap: square"/>
     </g>
     <g id="line2d_18">
      <g>
       <use xlink:href="#mbf263a33ee" x="50.14375" y="129.206451" style="stroke: #000000; stroke-width: 0.8"/>
      </g>
     </g>
     <g id="text_10">
      <!-- 0.60 -->
      <g transform="translate(20.878125 133.00567) scale(0.1 -0.1)">
       <defs>
        <path id="DejaVuSans-36" d="M 2113 2584 
Q 1688 2584 1439 2293 
Q 1191 2003 1191 1497 
Q 1191 994 1439 701 
Q 1688 409 2113 409 
Q 2538 409 2786 701 
Q 3034 994 3034 1497 
Q 3034 2003 2786 2293 
Q 2538 2584 2113 2584 
z
M 3366 4563 
L 3366 3988 
Q 3128 4100 2886 4159 
Q 2644 4219 2406 4219 
Q 1781 4219 1451 3797 
Q 1122 3375 1075 2522 
Q 1259 2794 1537 2939 
Q 1816 3084 2150 3084 
Q 2853 3084 3261 2657 
Q 3669 2231 3669 1497 
Q 3669 778 3244 343 
Q 2819 -91 2113 -91 
Q 1303 -91 875 529 
Q 447 1150 447 2328 
Q 447 3434 972 4092 
Q 1497 4750 2381 4750 
Q 2619 4750 2861 4703 
Q 3103 4656 3366 4563 
z
" transform="scale(0.015625)"/>
       </defs>
       <use xlink:href="#DejaVuSans-30"/>
       <use xlink:href="#DejaVuSans-2e" transform="translate(63.623047 0)"/>
       <use xlink:href="#DejaVuSans-36" transform="translate(95.410156 0)"/>
       <use xlink:href="#DejaVuSans-30" transform="translate(159.033203 0)"/>
      </g>
     </g>
    </g>
    <g id="ytick_4">
     <g id="line2d_19">
      <path d="M 50.14375 88.449342 
L 269.59175 88.449342 
" clip-path="url(#p55437057c9)" style="fill: none; stroke: #b0b0b0; stroke-opacity: 0.3; stroke-width: 0.8; stroke-linecap: square"/>
     </g>
     <g id="line2d_20">
      <g>
       <use xlink:href="#mbf263a33ee" x="50.14375" y="88.449342" style="stroke: #000000; stroke-width: 0.8"/>
      </g>
     </g>
     <g id="text_11">
      <!-- 0.65 -->
      <g transform="translate(20.878125 92.248561) scale(0.1 -0.1)">
       <use xlink:href="#DejaVuSans-30"/>
       <use xlink:href="#DejaVuSans-2e" transform="translate(63.623047 0)"/>
       <use xlink:href="#DejaVuSans-36" transform="translate(95.410156 0)"/>
       <use xlink:href="#DejaVuSans-35" transform="translate(159.033203 0)"/>
      </g>
     </g>
    </g>
    <g id="text_12">
     <!-- MAE (sample) -->
     <g transform="translate(14.798437 184.490721) rotate(-90) scale(0.1 -0.1)">
      <defs>
       <path id="DejaVuSans-4d" d="M 628 4666 
L 1569 4666 
L 2759 1491 
L 3956 4666 
L 4897 4666 
L 4897 0 
L 4281 0 
L 4281 4097 
L 3078 897 
L 2444 897 
L 1241 4097 
L 1241 0 
L 628 0 
L 628 4666 
z
" transform="scale(0.015625)"/>
       <path id="DejaVuSans-41" d="M 2188 4044 
L 1331 1722 
L 3047 1722 
L 2188 4044 
z
M 1831 4666 
L 2547 4666 
L 4325 0 
L 3669 0 
L 3244 1197 
L 1141 1197 
L 716 0 
L 50 0 
L 1831 4666 
z
" transform="scale(0.015625)"/>
       <path id="DejaVuSans-45" d="M 628 4666 
L 3578 4666 
L 3578 4134 
L 1259 4134 
L 1259 2753 
L 3481 2753 
L 3481 2222 
L 1259 2222 
L 1259 531 
L 3634 531 
L 3634 0 
L 628 0 
L 628 4666 
z
" transform="scale(0.015625)"/>
       <path id="DejaVuSans-28" d="M 1984 4856 
Q 1566 4138 1362 3434 
Q 1159 2731 1159 2009 
Q 1159 1288 1364 580 
Q 1569 -128 1984 -844 
L 1484 -844 
Q 1016 -109 783 600 
Q 550 1309 550 2009 
Q 550 2706 781 3412 
Q 1013 4119 1484 4856 
L 1984 4856 
z
" transform="scale(0.015625)"/>
       <path id="DejaVuSans-6d" d="M 3328 2828 
Q 3544 3216 3844 3400 
Q 4144 3584 4550 3584 
Q 5097 3584 5394 3201 
Q 5691 2819 5691 2113 
L 5691 0 
L 5113 0 
L 5113 2094 
Q 5113 2597 4934 2840 
Q 4756 3084 4391 3084 
Q 3944 3084 3684 2787 
Q 3425 2491 3425 1978 
L 3425 0 
L 2847 0 
L 2847 2094 
Q 2847 2600 2669 2842 
Q 2491 3084 2119 3084 
Q 1678 3084 1418 2786 
Q 1159 2488 1159 1978 
L 1159 0 
L 581 0 
L 581 3500 
L 1159 3500 
L 1159 2956 
Q 1356 3278 1631 3431 
Q 1906 3584 2284 3584 
Q 2666 3584 2933 3390 
Q 3200 3197 3328 2828 
z
" transform="scale(0.015625)"/>
       <path id="DejaVuSans-6c" d="M 603 4863 
L 1178 4863 
L 1178 0 
L 603 0 
L 603 4863 
z
" transform="scale(0.015625)"/>
       <path id="DejaVuSans-29" d="M 513 4856 
L 1013 4856 
Q 1481 4119 1714 3412 
Q 1947 2706 1947 2009 
Q 1947 1309 1714 600 
Q 1481 -109 1013 -844 
L 513 -844 
Q 928 -128 1133 580 
Q 1338 1288 1338 2009 
Q 1338 2731 1133 3434 
Q 928 4138 513 4856 
z
" transform="scale(0.015625)"/>
      </defs>
      <use xlink:href="#DejaVuSans-4d"/>
      <use xlink:href="#DejaVuSans-41" transform="translate(86.279297 0)"/>
      <use xlink:href="#DejaVuSans-45" transform="translate(154.6875 0)"/>
      <use xlink:href="#DejaVuSans-20" transform="translate(217.871094 0)"/>
      <use xlink:href="#DejaVuSans-28" transform="translate(249.658203 0)"/>
      <use xlink:href="#DejaVuSans-73" transform="translate(288.671875 0)"/>
      <use xlink:href="#DejaVuSans-61" transform="translate(340.771484 0)"/>
      <use xlink:href="#DejaVuSans-6d" transform="translate(402.050781 0)"/>
      <use xlink:href="#DejaVuSans-70" transform="translate(499.462891 0)"/>
      <use xlink:href="#DejaVuSans-6c" transform="translate(562.939453 0)"/>
      <use xlink:href="#DejaVuSans-65" transform="translate(590.722656 0)"/>
      <use xlink:href="#DejaVuSans-29" transform="translate(652.246094 0)"/>
     </g>
    </g>
   </g>
   <g id="line2d_21">
    <path d="M 60.118659 209.888241 
L 68.431083 174.287582 
L 76.743508 124.430937 
L 85.055932 123.292609 
L 93.368356 109.538374 
L 101.68078 109.981286 
L 109.993205 91.983186 
L 118.305629 85.128879 
L 126.618053 98.647472 
L 134.930477 100.892109 
L 143.242902 90.231749 
L 151.555326 84.99104 
L 159.86775 90.389946 
L 168.180174 95.877229 
L 176.492598 88.3398 
L 184.805023 85.161384 
L 193.117447 85.497698 
L 201.429871 89.006063 
L 209.742295 83.820403 
L 218.05472 77.393072 
L 226.367144 90.384358 
L 234.679568 94.332332 
L 242.991992 92.065588 
L 251.304417 87.462915 
L 259.616841 90.161541 
" clip-path="url(#p55437057c9)" style="fill: none; stroke: #1f77b4; stroke-width: 2; stroke-linecap: square"/>
   </g>
   <g id="line2d_22">
    <path d="M 60.118659 230.247949 
L 68.431083 195.945345 
L 76.743508 143.232022 
L 85.055932 139.400218 
L 93.368356 125.323126 
L 101.68078 130.224994 
L 109.993205 111.994895 
L 118.305629 107.612463 
L 126.618053 120.397014 
L 134.930477 120.009684 
L 143.242902 111.972788 
L 151.555326 106.306367 
L 159.86775 113.772569 
L 168.180174 118.285795 
L 176.492598 110.077827 
L 184.805023 106.748502 
L 193.117447 101.859267 
L 201.429871 110.388973 
L 209.742295 102.024897 
L 218.05472 96.833358 
L 226.367144 110.775914 
L 234.679568 113.048925 
L 242.991992 115.748718 
L 251.304417 109.746031 
L 259.616841 114.718689 
" clip-path="url(#p55437057c9)" style="fill: none; stroke: #0af1f1; stroke-width: 2; stroke-linecap: square"/>
   </g>
   <g id="line2d_23">
    <path d="M 60.118659 215.39904 
L 68.431083 181.18445 
L 76.743508 123.733433 
L 85.055932 123.219293 
L 93.368356 106.957957 
L 101.68078 110.702403 
L 109.993205 93.296376 
L 118.305629 86.397029 
L 126.618053 97.347449 
L 134.930477 100.786191 
L 143.242902 90.415502 
L 151.555326 80.78862 
L 159.86775 89.29933 
L 168.180174 95.795507 
L 176.492598 89.839755 
L 184.805023 84.695636 
L 193.117447 83.873605 
L 201.429871 85.176445 
L 209.742295 78.415813 
L 218.05472 69.60693 
L 226.367144 85.464659 
L 234.679568 87.422637 
L 242.991992 88.232521 
L 251.304417 80.251742 
L 259.616841 80.856204 
" clip-path="url(#p55437057c9)" style="fill: none; stroke: #c71fd6; stroke-width: 2; stroke-linecap: square"/>
   </g>
   <g id="patch_3">
    <path d="M 50.14375 238.28 
L 50.14375 61.574879 
" style="fill: none; stroke: #000000; stroke-width: 0.8; stroke-linejoin: miter; stroke-linecap: square"/>
   </g>
   <g id="patch_4">
    <path d="M 269.59175 238.28 
L 269.59175 61.574879 
" style="fill: none; stroke: #000000; stroke-width: 0.8; stroke-linejoin: miter; stroke-linecap: square"/>
   </g>
   <g id="patch_5">
    <path d="M 50.14375 238.28 
L 269.59175 238.28 
" style="fill: none; stroke: #000000; stroke-width: 0.8; stroke-linejoin: miter; stroke-linecap: square"/>
   </g>
   <g id="patch_6">
    <path d="M 50.14375 61.574879 
L 269.59175 61.574879 
" style="fill: none; stroke: #000000; stroke-width: 0.8; stroke-linejoin: miter; stroke-linecap: square"/>
   </g>
   <g id="legend_1">
    <g id="patch_7">
     <path d="M 55.74375 103.202379 
L 128.4 103.202379 
Q 130 103.202379 130 101.602379 
L 130 67.174879 
Q 130 65.574879 128.4 65.574879 
L 55.74375 65.574879 
Q 54.14375 65.574879 54.14375 67.174879 
L 54.14375 101.602379 
Q 54.14375 103.202379 55.74375 103.202379 
z
" style="fill: #ffffff; opacity: 0.8; stroke: #cccccc; stroke-linejoin: miter"/>
    </g>
    <g id="line2d_24">
     <path d="M 57.34375 72.053629 
L 65.34375 72.053629 
L 73.34375 72.053629 
" style="fill: none; stroke: #1f77b4; stroke-width: 2; stroke-linecap: square"/>
    </g>
    <g id="text_13">
     <!-- NFTSF -->
     <g transform="translate(79.74375 74.853629) scale(0.08 -0.08)">
      <defs>
       <path id="DejaVuSans-4e" d="M 628 4666 
L 1478 4666 
L 3547 763 
L 3547 4666 
L 4159 4666 
L 4159 0 
L 3309 0 
L 1241 3903 
L 1241 0 
L 628 0 
L 628 4666 
z
" transform="scale(0.015625)"/>
       <path id="DejaVuSans-54" d="M -19 4666 
L 3928 4666 
L 3928 4134 
L 2272 4134 
L 2272 0 
L 1638 0 
L 1638 4134 
L -19 4134 
L -19 4666 
z
" transform="scale(0.015625)"/>
       <path id="DejaVuSans-53" d="M 3425 4513 
L 3425 3897 
Q 3066 4069 2747 4153 
Q 2428 4238 2131 4238 
Q 1616 4238 1336 4038 
Q 1056 3838 1056 3469 
Q 1056 3159 1242 3001 
Q 1428 2844 1947 2747 
L 2328 2669 
Q 3034 2534 3370 2195 
Q 3706 1856 3706 1288 
Q 3706 609 3251 259 
Q 2797 -91 1919 -91 
Q 1588 -91 1214 -16 
Q 841 59 441 206 
L 441 856 
Q 825 641 1194 531 
Q 1563 422 1919 422 
Q 2459 422 2753 634 
Q 3047 847 3047 1241 
Q 3047 1584 2836 1778 
Q 2625 1972 2144 2069 
L 1759 2144 
Q 1053 2284 737 2584 
Q 422 2884 422 3419 
Q 422 4038 858 4394 
Q 1294 4750 2059 4750 
Q 2388 4750 2728 4690 
Q 3069 4631 3425 4513 
z
" transform="scale(0.015625)"/>
      </defs>
      <use xlink:href="#DejaVuSans-4e"/>
      <use xlink:href="#DejaVuSans-46" transform="translate(74.804688 0)"/>
      <use xlink:href="#DejaVuSans-54" transform="translate(130.574219 0)"/>
      <use xlink:href="#DejaVuSans-53" transform="translate(191.658203 0)"/>
      <use xlink:href="#DejaVuSans-46" transform="translate(255.134766 0)"/>
     </g>
    </g>
    <g id="line2d_25">
     <path d="M 57.34375 83.796129 
L 65.34375 83.796129 
L 73.34375 83.796129 
" style="fill: none; stroke: #0af1f1; stroke-width: 2; stroke-linecap: square"/>
    </g>
    <g id="text_14">
     <!-- CSDI -->
     <g transform="translate(79.74375 86.596129) scale(0.08 -0.08)">
      <defs>
       <path id="DejaVuSans-43" d="M 4122 4306 
L 4122 3641 
Q 3803 3938 3442 4084 
Q 3081 4231 2675 4231 
Q 1875 4231 1450 3742 
Q 1025 3253 1025 2328 
Q 1025 1406 1450 917 
Q 1875 428 2675 428 
Q 3081 428 3442 575 
Q 3803 722 4122 1019 
L 4122 359 
Q 3791 134 3420 21 
Q 3050 -91 2638 -91 
Q 1578 -91 968 557 
Q 359 1206 359 2328 
Q 359 3453 968 4101 
Q 1578 4750 2638 4750 
Q 3056 4750 3426 4639 
Q 3797 4528 4122 4306 
z
" transform="scale(0.015625)"/>
       <path id="DejaVuSans-44" d="M 1259 4147 
L 1259 519 
L 2022 519 
Q 2988 519 3436 956 
Q 3884 1394 3884 2338 
Q 3884 3275 3436 3711 
Q 2988 4147 2022 4147 
L 1259 4147 
z
M 628 4666 
L 1925 4666 
Q 3281 4666 3915 4102 
Q 4550 3538 4550 2338 
Q 4550 1131 3912 565 
Q 3275 0 1925 0 
L 628 0 
L 628 4666 
z
" transform="scale(0.015625)"/>
       <path id="DejaVuSans-49" d="M 628 4666 
L 1259 4666 
L 1259 0 
L 628 0 
L 628 4666 
z
" transform="scale(0.015625)"/>
      </defs>
      <use xlink:href="#DejaVuSans-43"/>
      <use xlink:href="#DejaVuSans-53" transform="translate(69.824219 0)"/>
      <use xlink:href="#DejaVuSans-44" transform="translate(133.300781 0)"/>
      <use xlink:href="#DejaVuSans-49" transform="translate(210.302734 0)"/>
     </g>
    </g>
    <g id="line2d_26">
     <path d="M 57.34375 95.538629 
L 65.34375 95.538629 
L 73.34375 95.538629 
" style="fill: none; stroke: #c71fd6; stroke-width: 2; stroke-linecap: square"/>
    </g>
    <g id="text_15">
     <!-- TSDiff-Cond -->
     <g transform="translate(79.74375 98.338629) scale(0.08 -0.08)">
      <defs>
       <path id="DejaVuSans-69" d="M 603 3500 
L 1178 3500 
L 1178 0 
L 603 0 
L 603 3500 
z
M 603 4863 
L 1178 4863 
L 1178 4134 
L 603 4134 
L 603 4863 
z
" transform="scale(0.015625)"/>
       <path id="DejaVuSans-66" d="M 2375 4863 
L 2375 4384 
L 1825 4384 
Q 1516 4384 1395 4259 
Q 1275 4134 1275 3809 
L 1275 3500 
L 2222 3500 
L 2222 3053 
L 1275 3053 
L 1275 0 
L 697 0 
L 697 3053 
L 147 3053 
L 147 3500 
L 697 3500 
L 697 3744 
Q 697 4328 969 4595 
Q 1241 4863 1831 4863 
L 2375 4863 
z
" transform="scale(0.015625)"/>
       <path id="DejaVuSans-2d" d="M 313 2009 
L 1997 2009 
L 1997 1497 
L 313 1497 
L 313 2009 
z
" transform="scale(0.015625)"/>
       <path id="DejaVuSans-6e" d="M 3513 2113 
L 3513 0 
L 2938 0 
L 2938 2094 
Q 2938 2591 2744 2837 
Q 2550 3084 2163 3084 
Q 1697 3084 1428 2787 
Q 1159 2491 1159 1978 
L 1159 0 
L 581 0 
L 581 3500 
L 1159 3500 
L 1159 2956 
Q 1366 3272 1645 3428 
Q 1925 3584 2291 3584 
Q 2894 3584 3203 3211 
Q 3513 2838 3513 2113 
z
" transform="scale(0.015625)"/>
       <path id="DejaVuSans-64" d="M 2906 2969 
L 2906 4863 
L 3481 4863 
L 3481 0 
L 2906 0 
L 2906 525 
Q 2725 213 2448 61 
Q 2172 -91 1784 -91 
Q 1150 -91 751 415 
Q 353 922 353 1747 
Q 353 2572 751 3078 
Q 1150 3584 1784 3584 
Q 2172 3584 2448 3432 
Q 2725 3281 2906 2969 
z
M 947 1747 
Q 947 1113 1208 752 
Q 1469 391 1925 391 
Q 2381 391 2643 752 
Q 2906 1113 2906 1747 
Q 2906 2381 2643 2742 
Q 2381 3103 1925 3103 
Q 1469 3103 1208 2742 
Q 947 2381 947 1747 
z
" transform="scale(0.015625)"/>
      </defs>
      <use xlink:href="#DejaVuSans-54"/>
      <use xlink:href="#DejaVuSans-53" transform="translate(61.083984 0)"/>
      <use xlink:href="#DejaVuSans-44" transform="translate(124.560547 0)"/>
      <use xlink:href="#DejaVuSans-69" transform="translate(201.5625 0)"/>
      <use xlink:href="#DejaVuSans-66" transform="translate(229.345703 0)"/>
      <use xlink:href="#DejaVuSans-66" transform="translate(264.550781 0)"/>
      <use xlink:href="#DejaVuSans-2d" transform="translate(294.255859 0)"/>
      <use xlink:href="#DejaVuSans-43" transform="translate(330.339844 0)"/>
      <use xlink:href="#DejaVuSans-6f" transform="translate(400.164062 0)"/>
      <use xlink:href="#DejaVuSans-6e" transform="translate(461.345703 0)"/>
      <use xlink:href="#DejaVuSans-64" transform="translate(524.724609 0)"/>
     </g>
    </g>
   </g>
  </g>
  <g id="axes_2">
   <g id="patch_8">
    <path d="M 332.90175 238.28 
L 552.34975 238.28 
L 552.34975 61.574879 
L 332.90175 61.574879 
z
" style="fill: #ffffff"/>
   </g>
   <g id="matplotlib.axis_3">
    <g id="xtick_7">
     <g id="line2d_27">
      <path d="M 334.564235 238.28 
L 334.564235 61.574879 
" clip-path="url(#p6c3c0ad194)" style="fill: none; stroke: #b0b0b0; stroke-opacity: 0.3; stroke-width: 0.8; stroke-linecap: square"/>
     </g>
     <g id="line2d_28">
      <g>
       <use xlink:href="#m4f6e4b8db4" x="334.564235" y="238.28" style="stroke: #000000; stroke-width: 0.8"/>
      </g>
     </g>
     <g id="text_16">
      <!-- 0 -->
      <g transform="translate(331.382985 252.878437) scale(0.1 -0.1)">
       <use xlink:href="#DejaVuSans-30"/>
      </g>
     </g>
    </g>
    <g id="xtick_8">
     <g id="line2d_29">
      <path d="M 376.126356 238.28 
L 376.126356 61.574879 
" clip-path="url(#p6c3c0ad194)" style="fill: none; stroke: #b0b0b0; stroke-opacity: 0.3; stroke-width: 0.8; stroke-linecap: square"/>
     </g>
     <g id="line2d_30">
      <g>
       <use xlink:href="#m4f6e4b8db4" x="376.126356" y="238.28" style="stroke: #000000; stroke-width: 0.8"/>
      </g>
     </g>
     <g id="text_17">
      <!-- 5 -->
      <g transform="translate(372.945106 252.878437) scale(0.1 -0.1)">
       <use xlink:href="#DejaVuSans-35"/>
      </g>
     </g>
    </g>
    <g id="xtick_9">
     <g id="line2d_31">
      <path d="M 417.688477 238.28 
L 417.688477 61.574879 
" clip-path="url(#p6c3c0ad194)" style="fill: none; stroke: #b0b0b0; stroke-opacity: 0.3; stroke-width: 0.8; stroke-linecap: square"/>
     </g>
     <g id="line2d_32">
      <g>
       <use xlink:href="#m4f6e4b8db4" x="417.688477" y="238.28" style="stroke: #000000; stroke-width: 0.8"/>
      </g>
     </g>
     <g id="text_18">
      <!-- 10 -->
      <g transform="translate(411.325977 252.878437) scale(0.1 -0.1)">
       <use xlink:href="#DejaVuSans-31"/>
       <use xlink:href="#DejaVuSans-30" transform="translate(63.623047 0)"/>
      </g>
     </g>
    </g>
    <g id="xtick_10">
     <g id="line2d_33">
      <path d="M 459.250598 238.28 
L 459.250598 61.574879 
" clip-path="url(#p6c3c0ad194)" style="fill: none; stroke: #b0b0b0; stroke-opacity: 0.3; stroke-width: 0.8; stroke-linecap: square"/>
     </g>
     <g id="line2d_34">
      <g>
       <use xlink:href="#m4f6e4b8db4" x="459.250598" y="238.28" style="stroke: #000000; stroke-width: 0.8"/>
      </g>
     </g>
     <g id="text_19">
      <!-- 15 -->
      <g transform="translate(452.888098 252.878437) scale(0.1 -0.1)">
       <use xlink:href="#DejaVuSans-31"/>
       <use xlink:href="#DejaVuSans-35" transform="translate(63.623047 0)"/>
      </g>
     </g>
    </g>
    <g id="xtick_11">
     <g id="line2d_35">
      <path d="M 500.81272 238.28 
L 500.81272 61.574879 
" clip-path="url(#p6c3c0ad194)" style="fill: none; stroke: #b0b0b0; stroke-opacity: 0.3; stroke-width: 0.8; stroke-linecap: square"/>
     </g>
     <g id="line2d_36">
      <g>
       <use xlink:href="#m4f6e4b8db4" x="500.81272" y="238.28" style="stroke: #000000; stroke-width: 0.8"/>
      </g>
     </g>
     <g id="text_20">
      <!-- 20 -->
      <g transform="translate(494.45022 252.878437) scale(0.1 -0.1)">
       <use xlink:href="#DejaVuSans-32"/>
       <use xlink:href="#DejaVuSans-30" transform="translate(63.623047 0)"/>
      </g>
     </g>
    </g>
    <g id="xtick_12">
     <g id="line2d_37">
      <path d="M 542.374841 238.28 
L 542.374841 61.574879 
" clip-path="url(#p6c3c0ad194)" style="fill: none; stroke: #b0b0b0; stroke-opacity: 0.3; stroke-width: 0.8; stroke-linecap: square"/>
     </g>
     <g id="line2d_38">
      <g>
       <use xlink:href="#m4f6e4b8db4" x="542.374841" y="238.28" style="stroke: #000000; stroke-width: 0.8"/>
      </g>
     </g>
     <g id="text_21">
      <!-- 25 -->
      <g transform="translate(536.012341 252.878437) scale(0.1 -0.1)">
       <use xlink:href="#DejaVuSans-32"/>
       <use xlink:href="#DejaVuSans-35" transform="translate(63.623047 0)"/>
      </g>
     </g>
    </g>
    <g id="text_22">
     <!-- Forecast step -->
     <g transform="translate(409.0695 266.556562) scale(0.1 -0.1)">
      <use xlink:href="#DejaVuSans-46"/>
      <use xlink:href="#DejaVuSans-6f" transform="translate(53.894531 0)"/>
      <use xlink:href="#DejaVuSans-72" transform="translate(115.076172 0)"/>
      <use xlink:href="#DejaVuSans-65" transform="translate(153.939453 0)"/>
      <use xlink:href="#DejaVuSans-63" transform="translate(215.462891 0)"/>
      <use xlink:href="#DejaVuSans-61" transform="translate(270.443359 0)"/>
      <use xlink:href="#DejaVuSans-73" transform="translate(331.722656 0)"/>
      <use xlink:href="#DejaVuSans-74" transform="translate(383.822266 0)"/>
      <use xlink:href="#DejaVuSans-20" transform="translate(423.03125 0)"/>
      <use xlink:href="#DejaVuSans-73" transform="translate(454.818359 0)"/>
      <use xlink:href="#DejaVuSans-74" transform="translate(506.917969 0)"/>
      <use xlink:href="#DejaVuSans-65" transform="translate(546.126953 0)"/>
      <use xlink:href="#DejaVuSans-70" transform="translate(607.650391 0)"/>
     </g>
    </g>
   </g>
   <g id="matplotlib.axis_4">
    <g id="ytick_5">
     <g id="line2d_39">
      <path d="M 332.90175 211.680681 
L 552.34975 211.680681 
" clip-path="url(#p6c3c0ad194)" style="fill: none; stroke: #b0b0b0; stroke-opacity: 0.3; stroke-width: 0.8; stroke-linecap: square"/>
     </g>
     <g id="line2d_40">
      <g>
       <use xlink:href="#mbf263a33ee" x="332.90175" y="211.680681" style="stroke: #000000; stroke-width: 0.8"/>
      </g>
     </g>
     <g id="text_23">
      <!-- 0.26 -->
      <g transform="translate(303.636125 215.4799) scale(0.1 -0.1)">
       <use xlink:href="#DejaVuSans-30"/>
       <use xlink:href="#DejaVuSans-2e" transform="translate(63.623047 0)"/>
       <use xlink:href="#DejaVuSans-32" transform="translate(95.410156 0)"/>
       <use xlink:href="#DejaVuSans-36" transform="translate(159.033203 0)"/>
      </g>
     </g>
    </g>
    <g id="ytick_6">
     <g id="line2d_41">
      <path d="M 332.90175 181.720896 
L 552.34975 181.720896 
" clip-path="url(#p6c3c0ad194)" style="fill: none; stroke: #b0b0b0; stroke-opacity: 0.3; stroke-width: 0.8; stroke-linecap: square"/>
     </g>
     <g id="line2d_42">
      <g>
       <use xlink:href="#mbf263a33ee" x="332.90175" y="181.720896" style="stroke: #000000; stroke-width: 0.8"/>
      </g>
     </g>
     <g id="text_24">
      <!-- 0.28 -->
      <g transform="translate(303.636125 185.520114) scale(0.1 -0.1)">
       <defs>
        <path id="DejaVuSans-38" d="M 2034 2216 
Q 1584 2216 1326 1975 
Q 1069 1734 1069 1313 
Q 1069 891 1326 650 
Q 1584 409 2034 409 
Q 2484 409 2743 651 
Q 3003 894 3003 1313 
Q 3003 1734 2745 1975 
Q 2488 2216 2034 2216 
z
M 1403 2484 
Q 997 2584 770 2862 
Q 544 3141 544 3541 
Q 544 4100 942 4425 
Q 1341 4750 2034 4750 
Q 2731 4750 3128 4425 
Q 3525 4100 3525 3541 
Q 3525 3141 3298 2862 
Q 3072 2584 2669 2484 
Q 3125 2378 3379 2068 
Q 3634 1759 3634 1313 
Q 3634 634 3220 271 
Q 2806 -91 2034 -91 
Q 1263 -91 848 271 
Q 434 634 434 1313 
Q 434 1759 690 2068 
Q 947 2378 1403 2484 
z
M 1172 3481 
Q 1172 3119 1398 2916 
Q 1625 2713 2034 2713 
Q 2441 2713 2670 2916 
Q 2900 3119 2900 3481 
Q 2900 3844 2670 4047 
Q 2441 4250 2034 4250 
Q 1625 4250 1398 4047 
Q 1172 3844 1172 3481 
z
" transform="scale(0.015625)"/>
       </defs>
       <use xlink:href="#DejaVuSans-30"/>
       <use xlink:href="#DejaVuSans-2e" transform="translate(63.623047 0)"/>
       <use xlink:href="#DejaVuSans-32" transform="translate(95.410156 0)"/>
       <use xlink:href="#DejaVuSans-38" transform="translate(159.033203 0)"/>
      </g>
     </g>
    </g>
    <g id="ytick_7">
     <g id="line2d_43">
      <path d="M 332.90175 151.761111 
L 552.34975 151.761111 
" clip-path="url(#p6c3c0ad194)" style="fill: none; stroke: #b0b0b0; stroke-opacity: 0.3; stroke-width: 0.8; stroke-linecap: square"/>
     </g>
     <g id="line2d_44">
      <g>
       <use xlink:href="#mbf263a33ee" x="332.90175" y="151.761111" style="stroke: #000000; stroke-width: 0.8"/>
      </g>
     </g>
     <g id="text_25">
      <!-- 0.30 -->
      <g transform="translate(303.636125 155.560329) scale(0.1 -0.1)">
       <defs>
        <path id="DejaVuSans-33" d="M 2597 2516 
Q 3050 2419 3304 2112 
Q 3559 1806 3559 1356 
Q 3559 666 3084 287 
Q 2609 -91 1734 -91 
Q 1441 -91 1130 -33 
Q 819 25 488 141 
L 488 750 
Q 750 597 1062 519 
Q 1375 441 1716 441 
Q 2309 441 2620 675 
Q 2931 909 2931 1356 
Q 2931 1769 2642 2001 
Q 2353 2234 1838 2234 
L 1294 2234 
L 1294 2753 
L 1863 2753 
Q 2328 2753 2575 2939 
Q 2822 3125 2822 3475 
Q 2822 3834 2567 4026 
Q 2313 4219 1838 4219 
Q 1578 4219 1281 4162 
Q 984 4106 628 3988 
L 628 4550 
Q 988 4650 1302 4700 
Q 1616 4750 1894 4750 
Q 2613 4750 3031 4423 
Q 3450 4097 3450 3541 
Q 3450 3153 3228 2886 
Q 3006 2619 2597 2516 
z
" transform="scale(0.015625)"/>
       </defs>
       <use xlink:href="#DejaVuSans-30"/>
       <use xlink:href="#DejaVuSans-2e" transform="translate(63.623047 0)"/>
       <use xlink:href="#DejaVuSans-33" transform="translate(95.410156 0)"/>
       <use xlink:href="#DejaVuSans-30" transform="translate(159.033203 0)"/>
      </g>
     </g>
    </g>
    <g id="ytick_8">
     <g id="line2d_45">
      <path d="M 332.90175 121.801325 
L 552.34975 121.801325 
" clip-path="url(#p6c3c0ad194)" style="fill: none; stroke: #b0b0b0; stroke-opacity: 0.3; stroke-width: 0.8; stroke-linecap: square"/>
     </g>
     <g id="line2d_46">
      <g>
       <use xlink:href="#mbf263a33ee" x="332.90175" y="121.801325" style="stroke: #000000; stroke-width: 0.8"/>
      </g>
     </g>
     <g id="text_26">
      <!-- 0.32 -->
      <g transform="translate(303.636125 125.600544) scale(0.1 -0.1)">
       <use xlink:href="#DejaVuSans-30"/>
       <use xlink:href="#DejaVuSans-2e" transform="translate(63.623047 0)"/>
       <use xlink:href="#DejaVuSans-33" transform="translate(95.410156 0)"/>
       <use xlink:href="#DejaVuSans-32" transform="translate(159.033203 0)"/>
      </g>
     </g>
    </g>
    <g id="ytick_9">
     <g id="line2d_47">
      <path d="M 332.90175 91.84154 
L 552.34975 91.84154 
" clip-path="url(#p6c3c0ad194)" style="fill: none; stroke: #b0b0b0; stroke-opacity: 0.3; stroke-width: 0.8; stroke-linecap: square"/>
     </g>
     <g id="line2d_48">
      <g>
       <use xlink:href="#mbf263a33ee" x="332.90175" y="91.84154" style="stroke: #000000; stroke-width: 0.8"/>
      </g>
     </g>
     <g id="text_27">
      <!-- 0.34 -->
      <g transform="translate(303.636125 95.640759) scale(0.1 -0.1)">
       <defs>
        <path id="DejaVuSans-34" d="M 2419 4116 
L 825 1625 
L 2419 1625 
L 2419 4116 
z
M 2253 4666 
L 3047 4666 
L 3047 1625 
L 3713 1625 
L 3713 1100 
L 3047 1100 
L 3047 0 
L 2419 0 
L 2419 1100 
L 313 1100 
L 313 1709 
L 2253 4666 
z
" transform="scale(0.015625)"/>
       </defs>
       <use xlink:href="#DejaVuSans-30"/>
       <use xlink:href="#DejaVuSans-2e" transform="translate(63.623047 0)"/>
       <use xlink:href="#DejaVuSans-33" transform="translate(95.410156 0)"/>
       <use xlink:href="#DejaVuSans-34" transform="translate(159.033203 0)"/>
      </g>
     </g>
    </g>
    <g id="ytick_10">
     <g id="line2d_49">
      <path d="M 332.90175 61.881755 
L 552.34975 61.881755 
" clip-path="url(#p6c3c0ad194)" style="fill: none; stroke: #b0b0b0; stroke-opacity: 0.3; stroke-width: 0.8; stroke-linecap: square"/>
     </g>
     <g id="line2d_50">
      <g>
       <use xlink:href="#mbf263a33ee" x="332.90175" y="61.881755" style="stroke: #000000; stroke-width: 0.8"/>
      </g>
     </g>
     <g id="text_28">
      <!-- 0.36 -->
      <g transform="translate(303.636125 65.680974) scale(0.1 -0.1)">
       <use xlink:href="#DejaVuSans-30"/>
       <use xlink:href="#DejaVuSans-2e" transform="translate(63.623047 0)"/>
       <use xlink:href="#DejaVuSans-33" transform="translate(95.410156 0)"/>
       <use xlink:href="#DejaVuSans-36" transform="translate(159.033203 0)"/>
      </g>
     </g>
    </g>
    <g id="text_29">
     <!-- CRPS -->
     <g transform="translate(297.556438 163.082127) rotate(-90) scale(0.1 -0.1)">
      <defs>
       <path id="DejaVuSans-52" d="M 2841 2188 
Q 3044 2119 3236 1894 
Q 3428 1669 3622 1275 
L 4263 0 
L 3584 0 
L 2988 1197 
Q 2756 1666 2539 1819 
Q 2322 1972 1947 1972 
L 1259 1972 
L 1259 0 
L 628 0 
L 628 4666 
L 2053 4666 
Q 2853 4666 3247 4331 
Q 3641 3997 3641 3322 
Q 3641 2881 3436 2590 
Q 3231 2300 2841 2188 
z
M 1259 4147 
L 1259 2491 
L 2053 2491 
Q 2509 2491 2742 2702 
Q 2975 2913 2975 3322 
Q 2975 3731 2742 3939 
Q 2509 4147 2053 4147 
L 1259 4147 
z
" transform="scale(0.015625)"/>
       <path id="DejaVuSans-50" d="M 1259 4147 
L 1259 2394 
L 2053 2394 
Q 2494 2394 2734 2622 
Q 2975 2850 2975 3272 
Q 2975 3691 2734 3919 
Q 2494 4147 2053 4147 
L 1259 4147 
z
M 628 4666 
L 2053 4666 
Q 2838 4666 3239 4311 
Q 3641 3956 3641 3272 
Q 3641 2581 3239 2228 
Q 2838 1875 2053 1875 
L 1259 1875 
L 1259 0 
L 628 0 
L 628 4666 
z
" transform="scale(0.015625)"/>
      </defs>
      <use xlink:href="#DejaVuSans-43"/>
      <use xlink:href="#DejaVuSans-52" transform="translate(69.824219 0)"/>
      <use xlink:href="#DejaVuSans-50" transform="translate(139.306641 0)"/>
      <use xlink:href="#DejaVuSans-53" transform="translate(199.609375 0)"/>
     </g>
    </g>
   </g>
   <g id="line2d_51">
    <path d="M 342.876659 219.541938 
L 351.189083 204.293873 
L 359.501508 135.629775 
L 367.813932 148.064355 
L 376.126356 129.815173 
L 384.43878 133.983316 
L 392.751205 103.07594 
L 401.063629 90.842717 
L 409.376053 114.849077 
L 417.688477 122.006502 
L 426.000902 102.150284 
L 434.313326 94.185406 
L 442.62575 103.377694 
L 450.938174 113.3265 
L 459.250598 102.379302 
L 467.563023 94.437693 
L 475.875447 95.295576 
L 484.187871 101.360123 
L 492.500295 93.611565 
L 500.81272 81.775995 
L 509.125144 104.42663 
L 517.437568 112.47069 
L 525.749992 110.017105 
L 534.062417 99.197547 
L 542.374841 104.744012 
" clip-path="url(#p6c3c0ad194)" style="fill: none; stroke: #1f77b4; stroke-width: 2; stroke-linecap: square"/>
   </g>
   <g id="line2d_52">
    <path d="M 342.876659 230.247949 
L 351.189083 218.719953 
L 359.501508 146.464666 
L 367.813932 155.253364 
L 376.126356 137.332222 
L 384.43878 148.139813 
L 392.751205 118.268072 
L 401.063629 110.54836 
L 409.376053 133.19133 
L 417.688477 134.471001 
L 426.000902 119.7122 
L 434.313326 109.800158 
L 442.62575 124.329771 
L 450.938174 131.487537 
L 459.250598 120.064585 
L 467.563023 112.218658 
L 475.875447 105.802088 
L 484.187871 118.746135 
L 492.500295 104.11721 
L 500.81272 94.900741 
L 509.125144 119.304595 
L 517.437568 124.437828 
L 525.749992 128.470236 
L 534.062417 117.973871 
L 542.374841 126.981581 
" clip-path="url(#p6c3c0ad194)" style="fill: none; stroke: #0af1f1; stroke-width: 2; stroke-linecap: square"/>
   </g>
   <g id="line2d_53">
    <path d="M 342.876659 210.751677 
L 351.189083 198.731302 
L 359.501508 122.576505 
L 367.813932 135.811003 
L 376.126356 113.941359 
L 384.43878 126.984786 
L 392.751205 97.076871 
L 401.063629 86.891519 
L 409.376053 107.864251 
L 417.688477 113.828253 
L 426.000902 96.287793 
L 434.313326 79.968909 
L 442.62575 96.911853 
L 450.938174 110.715349 
L 459.250598 101.005283 
L 467.563023 92.093698 
L 475.875447 91.095446 
L 484.187871 94.63419 
L 492.500295 84.1811 
L 500.81272 69.60693 
L 509.125144 99.76628 
L 517.437568 107.750008 
L 525.749992 112.947113 
L 534.062417 102.085442 
L 542.374841 106.72351 
" clip-path="url(#p6c3c0ad194)" style="fill: none; stroke: #c71fd6; stroke-width: 2; stroke-linecap: square"/>
   </g>
   <g id="patch_9">
    <path d="M 332.90175 238.28 
L 332.90175 61.574879 
" style="fill: none; stroke: #000000; stroke-width: 0.8; stroke-linejoin: miter; stroke-linecap: square"/>
   </g>
   <g id="patch_10">
    <path d="M 552.34975 238.28 
L 552.34975 61.574879 
" style="fill: none; stroke: #000000; stroke-width: 0.8; stroke-linejoin: miter; stroke-linecap: square"/>
   </g>
   <g id="patch_11">
    <path d="M 332.90175 238.28 
L 552.34975 238.28 
" style="fill: none; stroke: #000000; stroke-width: 0.8; stroke-linejoin: miter; stroke-linecap: square"/>
   </g>
   <g id="patch_12">
    <path d="M 332.90175 61.574879 
L 552.34975 61.574879 
" style="fill: none; stroke: #000000; stroke-width: 0.8; stroke-linejoin: miter; stroke-linecap: square"/>
   </g>
  </g>
  <g id="axes_3">
   <g id="patch_13">
    <path d="M 615.65975 238.28 
L 835.10775 238.28 
L 835.10775 61.574879 
L 615.65975 61.574879 
z
" style="fill: #ffffff"/>
   </g>
   <g id="matplotlib.axis_5">
    <g id="xtick_13">
     <g id="line2d_54">
      <path d="M 617.322235 238.28 
L 617.322235 61.574879 
" clip-path="url(#p070e40ead9)" style="fill: none; stroke: #b0b0b0; stroke-opacity: 0.3; stroke-width: 0.8; stroke-linecap: square"/>
     </g>
     <g id="line2d_55">
      <g>
       <use xlink:href="#m4f6e4b8db4" x="617.322235" y="238.28" style="stroke: #000000; stroke-width: 0.8"/>
      </g>
     </g>
     <g id="text_30">
      <!-- 0 -->
      <g transform="translate(614.140985 252.878437) scale(0.1 -0.1)">
       <use xlink:href="#DejaVuSans-30"/>
      </g>
     </g>
    </g>
    <g id="xtick_14">
     <g id="line2d_56">
      <path d="M 658.884356 238.28 
L 658.884356 61.574879 
" clip-path="url(#p070e40ead9)" style="fill: none; stroke: #b0b0b0; stroke-opacity: 0.3; stroke-width: 0.8; stroke-linecap: square"/>
     </g>
     <g id="line2d_57">
      <g>
       <use xlink:href="#m4f6e4b8db4" x="658.884356" y="238.28" style="stroke: #000000; stroke-width: 0.8"/>
      </g>
     </g>
     <g id="text_31">
      <!-- 5 -->
      <g transform="translate(655.703106 252.878437) scale(0.1 -0.1)">
       <use xlink:href="#DejaVuSans-35"/>
      </g>
     </g>
    </g>
    <g id="xtick_15">
     <g id="line2d_58">
      <path d="M 700.446477 238.28 
L 700.446477 61.574879 
" clip-path="url(#p070e40ead9)" style="fill: none; stroke: #b0b0b0; stroke-opacity: 0.3; stroke-width: 0.8; stroke-linecap: square"/>
     </g>
     <g id="line2d_59">
      <g>
       <use xlink:href="#m4f6e4b8db4" x="700.446477" y="238.28" style="stroke: #000000; stroke-width: 0.8"/>
      </g>
     </g>
     <g id="text_32">
      <!-- 10 -->
      <g transform="translate(694.083977 252.878437) scale(0.1 -0.1)">
       <use xlink:href="#DejaVuSans-31"/>
       <use xlink:href="#DejaVuSans-30" transform="translate(63.623047 0)"/>
      </g>
     </g>
    </g>
    <g id="xtick_16">
     <g id="line2d_60">
      <path d="M 742.008598 238.28 
L 742.008598 61.574879 
" clip-path="url(#p070e40ead9)" style="fill: none; stroke: #b0b0b0; stroke-opacity: 0.3; stroke-width: 0.8; stroke-linecap: square"/>
     </g>
     <g id="line2d_61">
      <g>
       <use xlink:href="#m4f6e4b8db4" x="742.008598" y="238.28" style="stroke: #000000; stroke-width: 0.8"/>
      </g>
     </g>
     <g id="text_33">
      <!-- 15 -->
      <g transform="translate(735.646098 252.878437) scale(0.1 -0.1)">
       <use xlink:href="#DejaVuSans-31"/>
       <use xlink:href="#DejaVuSans-35" transform="translate(63.623047 0)"/>
      </g>
     </g>
    </g>
    <g id="xtick_17">
     <g id="line2d_62">
      <path d="M 783.57072 238.28 
L 783.57072 61.574879 
" clip-path="url(#p070e40ead9)" style="fill: none; stroke: #b0b0b0; stroke-opacity: 0.3; stroke-width: 0.8; stroke-linecap: square"/>
     </g>
     <g id="line2d_63">
      <g>
       <use xlink:href="#m4f6e4b8db4" x="783.57072" y="238.28" style="stroke: #000000; stroke-width: 0.8"/>
      </g>
     </g>
     <g id="text_34">
      <!-- 20 -->
      <g transform="translate(777.20822 252.878437) scale(0.1 -0.1)">
       <use xlink:href="#DejaVuSans-32"/>
       <use xlink:href="#DejaVuSans-30" transform="translate(63.623047 0)"/>
      </g>
     </g>
    </g>
    <g id="xtick_18">
     <g id="line2d_64">
      <path d="M 825.132841 238.28 
L 825.132841 61.574879 
" clip-path="url(#p070e40ead9)" style="fill: none; stroke: #b0b0b0; stroke-opacity: 0.3; stroke-width: 0.8; stroke-linecap: square"/>
     </g>
     <g id="line2d_65">
      <g>
       <use xlink:href="#m4f6e4b8db4" x="825.132841" y="238.28" style="stroke: #000000; stroke-width: 0.8"/>
      </g>
     </g>
     <g id="text_35">
      <!-- 25 -->
      <g transform="translate(818.770341 252.878437) scale(0.1 -0.1)">
       <use xlink:href="#DejaVuSans-32"/>
       <use xlink:href="#DejaVuSans-35" transform="translate(63.623047 0)"/>
      </g>
     </g>
    </g>
    <g id="text_36">
     <!-- Forecast step -->
     <g transform="translate(691.8275 266.556562) scale(0.1 -0.1)">
      <use xlink:href="#DejaVuSans-46"/>
      <use xlink:href="#DejaVuSans-6f" transform="translate(53.894531 0)"/>
      <use xlink:href="#DejaVuSans-72" transform="translate(115.076172 0)"/>
      <use xlink:href="#DejaVuSans-65" transform="translate(153.939453 0)"/>
      <use xlink:href="#DejaVuSans-63" transform="translate(215.462891 0)"/>
      <use xlink:href="#DejaVuSans-61" transform="translate(270.443359 0)"/>
      <use xlink:href="#DejaVuSans-73" transform="translate(331.722656 0)"/>
      <use xlink:href="#DejaVuSans-74" transform="translate(383.822266 0)"/>
      <use xlink:href="#DejaVuSans-20" transform="translate(423.03125 0)"/>
      <use xlink:href="#DejaVuSans-73" transform="translate(454.818359 0)"/>
      <use xlink:href="#DejaVuSans-74" transform="translate(506.917969 0)"/>
      <use xlink:href="#DejaVuSans-65" transform="translate(546.126953 0)"/>
      <use xlink:href="#DejaVuSans-70" transform="translate(607.650391 0)"/>
     </g>
    </g>
   </g>
   <g id="matplotlib.axis_6">
    <g id="ytick_11">
     <g id="line2d_66">
      <path d="M 615.65975 230.247949 
L 835.10775 230.247949 
" clip-path="url(#p070e40ead9)" style="fill: none; stroke: #b0b0b0; stroke-opacity: 0.3; stroke-width: 0.8; stroke-linecap: square"/>
     </g>
     <g id="line2d_67">
      <g>
       <use xlink:href="#mbf263a33ee" x="615.65975" y="230.247949" style="stroke: #000000; stroke-width: 0.8"/>
      </g>
     </g>
     <g id="text_37">
      <!-- 0.42 -->
      <g transform="translate(586.394125 234.047168) scale(0.1 -0.1)">
       <use xlink:href="#DejaVuSans-30"/>
       <use xlink:href="#DejaVuSans-2e" transform="translate(63.623047 0)"/>
       <use xlink:href="#DejaVuSans-34" transform="translate(95.410156 0)"/>
       <use xlink:href="#DejaVuSans-32" transform="translate(159.033203 0)"/>
      </g>
     </g>
    </g>
    <g id="ytick_12">
     <g id="line2d_68">
      <path d="M 615.65975 207.299232 
L 835.10775 207.299232 
" clip-path="url(#p070e40ead9)" style="fill: none; stroke: #b0b0b0; stroke-opacity: 0.3; stroke-width: 0.8; stroke-linecap: square"/>
     </g>
     <g id="line2d_69">
      <g>
       <use xlink:href="#mbf263a33ee" x="615.65975" y="207.299232" style="stroke: #000000; stroke-width: 0.8"/>
      </g>
     </g>
     <g id="text_38">
      <!-- 0.44 -->
      <g transform="translate(586.394125 211.098451) scale(0.1 -0.1)">
       <use xlink:href="#DejaVuSans-30"/>
       <use xlink:href="#DejaVuSans-2e" transform="translate(63.623047 0)"/>
       <use xlink:href="#DejaVuSans-34" transform="translate(95.410156 0)"/>
       <use xlink:href="#DejaVuSans-34" transform="translate(159.033203 0)"/>
      </g>
     </g>
    </g>
    <g id="ytick_13">
     <g id="line2d_70">
      <path d="M 615.65975 184.350515 
L 835.10775 184.350515 
" clip-path="url(#p070e40ead9)" style="fill: none; stroke: #b0b0b0; stroke-opacity: 0.3; stroke-width: 0.8; stroke-linecap: square"/>
     </g>
     <g id="line2d_71">
      <g>
       <use xlink:href="#mbf263a33ee" x="615.65975" y="184.350515" style="stroke: #000000; stroke-width: 0.8"/>
      </g>
     </g>
     <g id="text_39">
      <!-- 0.46 -->
      <g transform="translate(586.394125 188.149734) scale(0.1 -0.1)">
       <use xlink:href="#DejaVuSans-30"/>
       <use xlink:href="#DejaVuSans-2e" transform="translate(63.623047 0)"/>
       <use xlink:href="#DejaVuSans-34" transform="translate(95.410156 0)"/>
       <use xlink:href="#DejaVuSans-36" transform="translate(159.033203 0)"/>
      </g>
     </g>
    </g>
    <g id="ytick_14">
     <g id="line2d_72">
      <path d="M 615.65975 161.401798 
L 835.10775 161.401798 
" clip-path="url(#p070e40ead9)" style="fill: none; stroke: #b0b0b0; stroke-opacity: 0.3; stroke-width: 0.8; stroke-linecap: square"/>
     </g>
     <g id="line2d_73">
      <g>
       <use xlink:href="#mbf263a33ee" x="615.65975" y="161.401798" style="stroke: #000000; stroke-width: 0.8"/>
      </g>
     </g>
     <g id="text_40">
      <!-- 0.48 -->
      <g transform="translate(586.394125 165.201017) scale(0.1 -0.1)">
       <use xlink:href="#DejaVuSans-30"/>
       <use xlink:href="#DejaVuSans-2e" transform="translate(63.623047 0)"/>
       <use xlink:href="#DejaVuSans-34" transform="translate(95.410156 0)"/>
       <use xlink:href="#DejaVuSans-38" transform="translate(159.033203 0)"/>
      </g>
     </g>
    </g>
    <g id="ytick_15">
     <g id="line2d_74">
      <path d="M 615.65975 138.453081 
L 835.10775 138.453081 
" clip-path="url(#p070e40ead9)" style="fill: none; stroke: #b0b0b0; stroke-opacity: 0.3; stroke-width: 0.8; stroke-linecap: square"/>
     </g>
     <g id="line2d_75">
      <g>
       <use xlink:href="#mbf263a33ee" x="615.65975" y="138.453081" style="stroke: #000000; stroke-width: 0.8"/>
      </g>
     </g>
     <g id="text_41">
      <!-- 0.50 -->
      <g transform="translate(586.394125 142.2523) scale(0.1 -0.1)">
       <use xlink:href="#DejaVuSans-30"/>
       <use xlink:href="#DejaVuSans-2e" transform="translate(63.623047 0)"/>
       <use xlink:href="#DejaVuSans-35" transform="translate(95.410156 0)"/>
       <use xlink:href="#DejaVuSans-30" transform="translate(159.033203 0)"/>
      </g>
     </g>
    </g>
    <g id="ytick_16">
     <g id="line2d_76">
      <path d="M 615.65975 115.504364 
L 835.10775 115.504364 
" clip-path="url(#p070e40ead9)" style="fill: none; stroke: #b0b0b0; stroke-opacity: 0.3; stroke-width: 0.8; stroke-linecap: square"/>
     </g>
     <g id="line2d_77">
      <g>
       <use xlink:href="#mbf263a33ee" x="615.65975" y="115.504364" style="stroke: #000000; stroke-width: 0.8"/>
      </g>
     </g>
     <g id="text_42">
      <!-- 0.52 -->
      <g transform="translate(586.394125 119.303583) scale(0.1 -0.1)">
       <use xlink:href="#DejaVuSans-30"/>
       <use xlink:href="#DejaVuSans-2e" transform="translate(63.623047 0)"/>
       <use xlink:href="#DejaVuSans-35" transform="translate(95.410156 0)"/>
       <use xlink:href="#DejaVuSans-32" transform="translate(159.033203 0)"/>
      </g>
     </g>
    </g>
    <g id="ytick_17">
     <g id="line2d_78">
      <path d="M 615.65975 92.555647 
L 835.10775 92.555647 
" clip-path="url(#p070e40ead9)" style="fill: none; stroke: #b0b0b0; stroke-opacity: 0.3; stroke-width: 0.8; stroke-linecap: square"/>
     </g>
     <g id="line2d_79">
      <g>
       <use xlink:href="#mbf263a33ee" x="615.65975" y="92.555647" style="stroke: #000000; stroke-width: 0.8"/>
      </g>
     </g>
     <g id="text_43">
      <!-- 0.54 -->
      <g transform="translate(586.394125 96.354866) scale(0.1 -0.1)">
       <use xlink:href="#DejaVuSans-30"/>
       <use xlink:href="#DejaVuSans-2e" transform="translate(63.623047 0)"/>
       <use xlink:href="#DejaVuSans-35" transform="translate(95.410156 0)"/>
       <use xlink:href="#DejaVuSans-34" transform="translate(159.033203 0)"/>
      </g>
     </g>
    </g>
    <g id="ytick_18">
     <g id="line2d_80">
      <path d="M 615.65975 69.60693 
L 835.10775 69.60693 
" clip-path="url(#p070e40ead9)" style="fill: none; stroke: #b0b0b0; stroke-opacity: 0.3; stroke-width: 0.8; stroke-linecap: square"/>
     </g>
     <g id="line2d_81">
      <g>
       <use xlink:href="#mbf263a33ee" x="615.65975" y="69.60693" style="stroke: #000000; stroke-width: 0.8"/>
      </g>
     </g>
     <g id="text_44">
      <!-- 0.56 -->
      <g transform="translate(586.394125 73.406149) scale(0.1 -0.1)">
       <use xlink:href="#DejaVuSans-30"/>
       <use xlink:href="#DejaVuSans-2e" transform="translate(63.623047 0)"/>
       <use xlink:href="#DejaVuSans-35" transform="translate(95.410156 0)"/>
       <use xlink:href="#DejaVuSans-36" transform="translate(159.033203 0)"/>
      </g>
     </g>
    </g>
    <g id="text_45">
     <!-- CI50 -->
     <g transform="translate(580.314437 161.256346) rotate(-90) scale(0.1 -0.1)">
      <use xlink:href="#DejaVuSans-43"/>
      <use xlink:href="#DejaVuSans-49" transform="translate(69.824219 0)"/>
      <use xlink:href="#DejaVuSans-35" transform="translate(99.316406 0)"/>
      <use xlink:href="#DejaVuSans-30" transform="translate(162.939453 0)"/>
     </g>
    </g>
   </g>
   <g id="line2d_82">
    <path d="M 625.634659 84.906074 
L 633.947083 107.854792 
L 642.259508 176.700943 
L 650.571932 138.453081 
L 658.884356 192.000087 
L 667.19678 92.555647 
L 675.509205 146.102653 
L 683.821629 169.05137 
L 692.134053 107.854792 
L 700.446477 138.453081 
L 708.758902 123.153936 
L 717.071326 92.555647 
L 725.38375 138.453081 
L 733.696174 130.803509 
L 742.008598 146.102653 
L 750.321023 184.350515 
L 758.633447 115.504364 
L 766.945871 100.205219 
L 775.258295 130.803509 
L 783.57072 184.350515 
L 791.883144 169.05137 
L 800.195568 176.700943 
L 808.507992 100.205219 
L 816.820417 176.700943 
L 825.132841 123.153936 
" clip-path="url(#p070e40ead9)" style="fill: none; stroke: #1f77b4; stroke-width: 2; stroke-linecap: square"/>
   </g>
   <g id="line2d_83">
    <path d="M 625.634659 115.504364 
L 633.947083 138.453081 
L 642.259508 199.64966 
L 650.571932 176.700943 
L 658.884356 199.64966 
L 667.19678 77.256502 
L 675.509205 123.153936 
L 683.821629 153.752226 
L 692.134053 138.453081 
L 700.446477 169.05137 
L 708.758902 130.803509 
L 717.071326 146.102653 
L 725.38375 115.504364 
L 733.696174 130.803509 
L 742.008598 161.401798 
L 750.321023 207.299232 
L 758.633447 146.102653 
L 766.945871 161.401798 
L 775.258295 169.05137 
L 783.57072 192.000087 
L 791.883144 207.299232 
L 800.195568 161.401798 
L 808.507992 100.205219 
L 816.820417 199.64966 
L 825.132841 138.453081 
" clip-path="url(#p070e40ead9)" style="fill: none; stroke: #0af1f1; stroke-width: 2; stroke-linecap: square"/>
   </g>
   <g id="line2d_84">
    <path d="M 625.634659 123.153936 
L 633.947083 176.700943 
L 642.259508 230.247949 
L 650.571932 169.05137 
L 658.884356 199.64966 
L 667.19678 84.906074 
L 675.509205 130.803509 
L 683.821629 176.700943 
L 692.134053 130.803509 
L 700.446477 146.102653 
L 708.758902 130.803509 
L 717.071326 115.504364 
L 725.38375 123.153936 
L 733.696174 123.153936 
L 742.008598 161.401798 
L 750.321023 192.000087 
L 758.633447 153.752226 
L 766.945871 107.854792 
L 775.258295 153.752226 
L 783.57072 199.64966 
L 791.883144 207.299232 
L 800.195568 176.700943 
L 808.507992 69.60693 
L 816.820417 184.350515 
L 825.132841 146.102653 
" clip-path="url(#p070e40ead9)" style="fill: none; stroke: #c71fd6; stroke-width: 2; stroke-linecap: square"/>
   </g>
   <g id="line2d_85">
    <path d="M 615.65975 138.453081 
L 835.10775 138.453081 
" clip-path="url(#p070e40ead9)" style="fill: none; stroke-dasharray: 2.96,1.28; stroke-dashoffset: 0; stroke: #000000; stroke-opacity: 0.6; stroke-width: 0.8"/>
   </g>
   <g id="patch_14">
    <path d="M 615.65975 238.28 
L 615.65975 61.574879 
" style="fill: none; stroke: #000000; stroke-width: 0.8; stroke-linejoin: miter; stroke-linecap: square"/>
   </g>
   <g id="patch_15">
    <path d="M 835.10775 238.28 
L 835.10775 61.574879 
" style="fill: none; stroke: #000000; stroke-width: 0.8; stroke-linejoin: miter; stroke-linecap: square"/>
   </g>
   <g id="patch_16">
    <path d="M 615.65975 238.28 
L 835.10775 238.28 
" style="fill: none; stroke: #000000; stroke-width: 0.8; stroke-linejoin: miter; stroke-linecap: square"/>
   </g>
   <g id="patch_17">
    <path d="M 615.65975 61.574879 
L 835.10775 61.574879 
" style="fill: none; stroke: #000000; stroke-width: 0.8; stroke-linejoin: miter; stroke-linecap: square"/>
   </g>
  </g>
  <g id="axes_4">
   <g id="patch_18">
    <path d="M 898.41775 238.28 
L 1117.86575 238.28 
L 1117.86575 61.574879 
L 898.41775 61.574879 
z
" style="fill: #ffffff"/>
   </g>
   <g id="matplotlib.axis_7">
    <g id="xtick_19">
     <g id="line2d_86">
      <path d="M 900.080235 238.28 
L 900.080235 61.574879 
" clip-path="url(#p7ac4d358c5)" style="fill: none; stroke: #b0b0b0; stroke-opacity: 0.3; stroke-width: 0.8; stroke-linecap: square"/>
     </g>
     <g id="line2d_87">
      <g>
       <use xlink:href="#m4f6e4b8db4" x="900.080235" y="238.28" style="stroke: #000000; stroke-width: 0.8"/>
      </g>
     </g>
     <g id="text_46">
      <!-- 0 -->
      <g transform="translate(896.898985 252.878437) scale(0.1 -0.1)">
       <use xlink:href="#DejaVuSans-30"/>
      </g>
     </g>
    </g>
    <g id="xtick_20">
     <g id="line2d_88">
      <path d="M 941.642356 238.28 
L 941.642356 61.574879 
" clip-path="url(#p7ac4d358c5)" style="fill: none; stroke: #b0b0b0; stroke-opacity: 0.3; stroke-width: 0.8; stroke-linecap: square"/>
     </g>
     <g id="line2d_89">
      <g>
       <use xlink:href="#m4f6e4b8db4" x="941.642356" y="238.28" style="stroke: #000000; stroke-width: 0.8"/>
      </g>
     </g>
     <g id="text_47">
      <!-- 5 -->
      <g transform="translate(938.461106 252.878437) scale(0.1 -0.1)">
       <use xlink:href="#DejaVuSans-35"/>
      </g>
     </g>
    </g>
    <g id="xtick_21">
     <g id="line2d_90">
      <path d="M 983.204477 238.28 
L 983.204477 61.574879 
" clip-path="url(#p7ac4d358c5)" style="fill: none; stroke: #b0b0b0; stroke-opacity: 0.3; stroke-width: 0.8; stroke-linecap: square"/>
     </g>
     <g id="line2d_91">
      <g>
       <use xlink:href="#m4f6e4b8db4" x="983.204477" y="238.28" style="stroke: #000000; stroke-width: 0.8"/>
      </g>
     </g>
     <g id="text_48">
      <!-- 10 -->
      <g transform="translate(976.841977 252.878437) scale(0.1 -0.1)">
       <use xlink:href="#DejaVuSans-31"/>
       <use xlink:href="#DejaVuSans-30" transform="translate(63.623047 0)"/>
      </g>
     </g>
    </g>
    <g id="xtick_22">
     <g id="line2d_92">
      <path d="M 1024.766598 238.28 
L 1024.766598 61.574879 
" clip-path="url(#p7ac4d358c5)" style="fill: none; stroke: #b0b0b0; stroke-opacity: 0.3; stroke-width: 0.8; stroke-linecap: square"/>
     </g>
     <g id="line2d_93">
      <g>
       <use xlink:href="#m4f6e4b8db4" x="1024.766598" y="238.28" style="stroke: #000000; stroke-width: 0.8"/>
      </g>
     </g>
     <g id="text_49">
      <!-- 15 -->
      <g transform="translate(1018.404098 252.878437) scale(0.1 -0.1)">
       <use xlink:href="#DejaVuSans-31"/>
       <use xlink:href="#DejaVuSans-35" transform="translate(63.623047 0)"/>
      </g>
     </g>
    </g>
    <g id="xtick_23">
     <g id="line2d_94">
      <path d="M 1066.32872 238.28 
L 1066.32872 61.574879 
" clip-path="url(#p7ac4d358c5)" style="fill: none; stroke: #b0b0b0; stroke-opacity: 0.3; stroke-width: 0.8; stroke-linecap: square"/>
     </g>
     <g id="line2d_95">
      <g>
       <use xlink:href="#m4f6e4b8db4" x="1066.32872" y="238.28" style="stroke: #000000; stroke-width: 0.8"/>
      </g>
     </g>
     <g id="text_50">
      <!-- 20 -->
      <g transform="translate(1059.96622 252.878437) scale(0.1 -0.1)">
       <use xlink:href="#DejaVuSans-32"/>
       <use xlink:href="#DejaVuSans-30" transform="translate(63.623047 0)"/>
      </g>
     </g>
    </g>
    <g id="xtick_24">
     <g id="line2d_96">
      <path d="M 1107.890841 238.28 
L 1107.890841 61.574879 
" clip-path="url(#p7ac4d358c5)" style="fill: none; stroke: #b0b0b0; stroke-opacity: 0.3; stroke-width: 0.8; stroke-linecap: square"/>
     </g>
     <g id="line2d_97">
      <g>
       <use xlink:href="#m4f6e4b8db4" x="1107.890841" y="238.28" style="stroke: #000000; stroke-width: 0.8"/>
      </g>
     </g>
     <g id="text_51">
      <!-- 25 -->
      <g transform="translate(1101.528341 252.878437) scale(0.1 -0.1)">
       <use xlink:href="#DejaVuSans-32"/>
       <use xlink:href="#DejaVuSans-35" transform="translate(63.623047 0)"/>
      </g>
     </g>
    </g>
    <g id="text_52">
     <!-- Forecast step -->
     <g transform="translate(974.5855 266.556562) scale(0.1 -0.1)">
      <use xlink:href="#DejaVuSans-46"/>
      <use xlink:href="#DejaVuSans-6f" transform="translate(53.894531 0)"/>
      <use xlink:href="#DejaVuSans-72" transform="translate(115.076172 0)"/>
      <use xlink:href="#DejaVuSans-65" transform="translate(153.939453 0)"/>
      <use xlink:href="#DejaVuSans-63" transform="translate(215.462891 0)"/>
      <use xlink:href="#DejaVuSans-61" transform="translate(270.443359 0)"/>
      <use xlink:href="#DejaVuSans-73" transform="translate(331.722656 0)"/>
      <use xlink:href="#DejaVuSans-74" transform="translate(383.822266 0)"/>
      <use xlink:href="#DejaVuSans-20" transform="translate(423.03125 0)"/>
      <use xlink:href="#DejaVuSans-73" transform="translate(454.818359 0)"/>
      <use xlink:href="#DejaVuSans-74" transform="translate(506.917969 0)"/>
      <use xlink:href="#DejaVuSans-65" transform="translate(546.126953 0)"/>
      <use xlink:href="#DejaVuSans-70" transform="translate(607.650391 0)"/>
     </g>
    </g>
   </g>
   <g id="matplotlib.axis_8">
    <g id="ytick_19">
     <g id="line2d_98">
      <path d="M 898.41775 211.349006 
L 1117.86575 211.349006 
" clip-path="url(#p7ac4d358c5)" style="fill: none; stroke: #b0b0b0; stroke-opacity: 0.3; stroke-width: 0.8; stroke-linecap: square"/>
     </g>
     <g id="line2d_99">
      <g>
       <use xlink:href="#mbf263a33ee" x="898.41775" y="211.349006" style="stroke: #000000; stroke-width: 0.8"/>
      </g>
     </g>
     <g id="text_53">
      <!-- 0.84 -->
      <g transform="translate(869.152125 215.148224) scale(0.1 -0.1)">
       <use xlink:href="#DejaVuSans-30"/>
       <use xlink:href="#DejaVuSans-2e" transform="translate(63.623047 0)"/>
       <use xlink:href="#DejaVuSans-38" transform="translate(95.410156 0)"/>
       <use xlink:href="#DejaVuSans-34" transform="translate(159.033203 0)"/>
      </g>
     </g>
    </g>
    <g id="ytick_20">
     <g id="line2d_100">
      <path d="M 898.41775 183.00059 
L 1117.86575 183.00059 
" clip-path="url(#p7ac4d358c5)" style="fill: none; stroke: #b0b0b0; stroke-opacity: 0.3; stroke-width: 0.8; stroke-linecap: square"/>
     </g>
     <g id="line2d_101">
      <g>
       <use xlink:href="#mbf263a33ee" x="898.41775" y="183.00059" style="stroke: #000000; stroke-width: 0.8"/>
      </g>
     </g>
     <g id="text_54">
      <!-- 0.86 -->
      <g transform="translate(869.152125 186.799809) scale(0.1 -0.1)">
       <use xlink:href="#DejaVuSans-30"/>
       <use xlink:href="#DejaVuSans-2e" transform="translate(63.623047 0)"/>
       <use xlink:href="#DejaVuSans-38" transform="translate(95.410156 0)"/>
       <use xlink:href="#DejaVuSans-36" transform="translate(159.033203 0)"/>
      </g>
     </g>
    </g>
    <g id="ytick_21">
     <g id="line2d_102">
      <path d="M 898.41775 154.652175 
L 1117.86575 154.652175 
" clip-path="url(#p7ac4d358c5)" style="fill: none; stroke: #b0b0b0; stroke-opacity: 0.3; stroke-width: 0.8; stroke-linecap: square"/>
     </g>
     <g id="line2d_103">
      <g>
       <use xlink:href="#mbf263a33ee" x="898.41775" y="154.652175" style="stroke: #000000; stroke-width: 0.8"/>
      </g>
     </g>
     <g id="text_55">
      <!-- 0.88 -->
      <g transform="translate(869.152125 158.451394) scale(0.1 -0.1)">
       <use xlink:href="#DejaVuSans-30"/>
       <use xlink:href="#DejaVuSans-2e" transform="translate(63.623047 0)"/>
       <use xlink:href="#DejaVuSans-38" transform="translate(95.410156 0)"/>
       <use xlink:href="#DejaVuSans-38" transform="translate(159.033203 0)"/>
      </g>
     </g>
    </g>
    <g id="ytick_22">
     <g id="line2d_104">
      <path d="M 898.41775 126.30376 
L 1117.86575 126.30376 
" clip-path="url(#p7ac4d358c5)" style="fill: none; stroke: #b0b0b0; stroke-opacity: 0.3; stroke-width: 0.8; stroke-linecap: square"/>
     </g>
     <g id="line2d_105">
      <g>
       <use xlink:href="#mbf263a33ee" x="898.41775" y="126.30376" style="stroke: #000000; stroke-width: 0.8"/>
      </g>
     </g>
     <g id="text_56">
      <!-- 0.90 -->
      <g transform="translate(869.152125 130.102979) scale(0.1 -0.1)">
       <defs>
        <path id="DejaVuSans-39" d="M 703 97 
L 703 672 
Q 941 559 1184 500 
Q 1428 441 1663 441 
Q 2288 441 2617 861 
Q 2947 1281 2994 2138 
Q 2813 1869 2534 1725 
Q 2256 1581 1919 1581 
Q 1219 1581 811 2004 
Q 403 2428 403 3163 
Q 403 3881 828 4315 
Q 1253 4750 1959 4750 
Q 2769 4750 3195 4129 
Q 3622 3509 3622 2328 
Q 3622 1225 3098 567 
Q 2575 -91 1691 -91 
Q 1453 -91 1209 -44 
Q 966 3 703 97 
z
M 1959 2075 
Q 2384 2075 2632 2365 
Q 2881 2656 2881 3163 
Q 2881 3666 2632 3958 
Q 2384 4250 1959 4250 
Q 1534 4250 1286 3958 
Q 1038 3666 1038 3163 
Q 1038 2656 1286 2365 
Q 1534 2075 1959 2075 
z
" transform="scale(0.015625)"/>
       </defs>
       <use xlink:href="#DejaVuSans-30"/>
       <use xlink:href="#DejaVuSans-2e" transform="translate(63.623047 0)"/>
       <use xlink:href="#DejaVuSans-39" transform="translate(95.410156 0)"/>
       <use xlink:href="#DejaVuSans-30" transform="translate(159.033203 0)"/>
      </g>
     </g>
    </g>
    <g id="ytick_23">
     <g id="line2d_106">
      <path d="M 898.41775 97.955345 
L 1117.86575 97.955345 
" clip-path="url(#p7ac4d358c5)" style="fill: none; stroke: #b0b0b0; stroke-opacity: 0.3; stroke-width: 0.8; stroke-linecap: square"/>
     </g>
     <g id="line2d_107">
      <g>
       <use xlink:href="#mbf263a33ee" x="898.41775" y="97.955345" style="stroke: #000000; stroke-width: 0.8"/>
      </g>
     </g>
     <g id="text_57">
      <!-- 0.92 -->
      <g transform="translate(869.152125 101.754564) scale(0.1 -0.1)">
       <use xlink:href="#DejaVuSans-30"/>
       <use xlink:href="#DejaVuSans-2e" transform="translate(63.623047 0)"/>
       <use xlink:href="#DejaVuSans-39" transform="translate(95.410156 0)"/>
       <use xlink:href="#DejaVuSans-32" transform="translate(159.033203 0)"/>
      </g>
     </g>
    </g>
    <g id="ytick_24">
     <g id="line2d_108">
      <path d="M 898.41775 69.60693 
L 1117.86575 69.60693 
" clip-path="url(#p7ac4d358c5)" style="fill: none; stroke: #b0b0b0; stroke-opacity: 0.3; stroke-width: 0.8; stroke-linecap: square"/>
     </g>
     <g id="line2d_109">
      <g>
       <use xlink:href="#mbf263a33ee" x="898.41775" y="69.60693" style="stroke: #000000; stroke-width: 0.8"/>
      </g>
     </g>
     <g id="text_58">
      <!-- 0.94 -->
      <g transform="translate(869.152125 73.406149) scale(0.1 -0.1)">
       <use xlink:href="#DejaVuSans-30"/>
       <use xlink:href="#DejaVuSans-2e" transform="translate(63.623047 0)"/>
       <use xlink:href="#DejaVuSans-39" transform="translate(95.410156 0)"/>
       <use xlink:href="#DejaVuSans-34" transform="translate(159.033203 0)"/>
      </g>
     </g>
    </g>
    <g id="text_59">
     <!-- CI90 -->
     <g transform="translate(863.072437 161.256346) rotate(-90) scale(0.1 -0.1)">
      <use xlink:href="#DejaVuSans-43"/>
      <use xlink:href="#DejaVuSans-49" transform="translate(69.824219 0)"/>
      <use xlink:href="#DejaVuSans-39" transform="translate(99.316406 0)"/>
      <use xlink:href="#DejaVuSans-30" transform="translate(162.939453 0)"/>
     </g>
    </g>
   </g>
   <g id="line2d_110">
    <path d="M 908.392659 145.202704 
L 916.705083 97.955345 
L 925.017508 164.101647 
L 933.329932 116.854288 
L 941.642356 107.404817 
L 949.95478 164.101647 
L 958.267205 164.101647 
L 966.579629 183.00059 
L 974.892053 164.101647 
L 983.204477 69.60693 
L 991.516902 164.101647 
L 999.829326 107.404817 
L 1008.14175 97.955345 
L 1016.454174 88.505873 
L 1024.766598 126.30376 
L 1033.079023 116.854288 
L 1041.391447 173.551119 
L 1049.703871 135.753232 
L 1058.016295 145.202704 
L 1066.32872 192.450062 
L 1074.641144 116.854288 
L 1082.953568 126.30376 
L 1091.265992 173.551119 
L 1099.578417 88.505873 
L 1107.890841 135.753232 
" clip-path="url(#p7ac4d358c5)" style="fill: none; stroke: #1f77b4; stroke-width: 2; stroke-linecap: square"/>
   </g>
   <g id="line2d_111">
    <path d="M 908.392659 154.652175 
L 916.705083 126.30376 
L 925.017508 230.247949 
L 933.329932 164.101647 
L 941.642356 135.753232 
L 949.95478 173.551119 
L 958.267205 192.450062 
L 966.579629 183.00059 
L 974.892053 201.899534 
L 983.204477 107.404817 
L 991.516902 154.652175 
L 999.829326 145.202704 
L 1008.14175 107.404817 
L 1016.454174 88.505873 
L 1024.766598 126.30376 
L 1033.079023 135.753232 
L 1041.391447 211.349006 
L 1049.703871 183.00059 
L 1058.016295 192.450062 
L 1066.32872 201.899534 
L 1074.641144 164.101647 
L 1082.953568 154.652175 
L 1091.265992 183.00059 
L 1099.578417 135.753232 
L 1107.890841 164.101647 
" clip-path="url(#p7ac4d358c5)" style="fill: none; stroke: #0af1f1; stroke-width: 2; stroke-linecap: square"/>
   </g>
   <g id="line2d_112">
    <path d="M 908.392659 164.101647 
L 916.705083 135.753232 
L 925.017508 173.551119 
L 933.329932 173.551119 
L 941.642356 107.404817 
L 949.95478 164.101647 
L 958.267205 183.00059 
L 966.579629 192.450062 
L 974.892053 183.00059 
L 983.204477 97.955345 
L 991.516902 154.652175 
L 999.829326 116.854288 
L 1008.14175 97.955345 
L 1016.454174 88.505873 
L 1024.766598 126.30376 
L 1033.079023 116.854288 
L 1041.391447 192.450062 
L 1049.703871 135.753232 
L 1058.016295 154.652175 
L 1066.32872 201.899534 
L 1074.641144 135.753232 
L 1082.953568 135.753232 
L 1091.265992 173.551119 
L 1099.578417 97.955345 
L 1107.890841 135.753232 
" clip-path="url(#p7ac4d358c5)" style="fill: none; stroke: #c71fd6; stroke-width: 2; stroke-linecap: square"/>
   </g>
   <g id="line2d_113">
    <path d="M 898.41775 126.30376 
L 1117.86575 126.30376 
" clip-path="url(#p7ac4d358c5)" style="fill: none; stroke-dasharray: 2.96,1.28; stroke-dashoffset: 0; stroke: #000000; stroke-opacity: 0.6; stroke-width: 0.8"/>
   </g>
   <g id="patch_19">
    <path d="M 898.41775 238.28 
L 898.41775 61.574879 
" style="fill: none; stroke: #000000; stroke-width: 0.8; stroke-linejoin: miter; stroke-linecap: square"/>
   </g>
   <g id="patch_20">
    <path d="M 1117.86575 238.28 
L 1117.86575 61.574879 
" style="fill: none; stroke: #000000; stroke-width: 0.8; stroke-linejoin: miter; stroke-linecap: square"/>
   </g>
   <g id="patch_21">
    <path d="M 898.41775 238.28 
L 1117.86575 238.28 
" style="fill: none; stroke: #000000; stroke-width: 0.8; stroke-linejoin: miter; stroke-linecap: square"/>
   </g>
   <g id="patch_22">
    <path d="M 898.41775 61.574879 
L 1117.86575 61.574879 
" style="fill: none; stroke: #000000; stroke-width: 0.8; stroke-linejoin: miter; stroke-linecap: square"/>
   </g>
  </g>
  <g id="axes_5">
   <g id="patch_23">
    <path d="M 1181.17575 238.28 
L 1400.62375 238.28 
L 1400.62375 61.574879 
L 1181.17575 61.574879 
z
" style="fill: #ffffff"/>
   </g>
   <g id="matplotlib.axis_9">
    <g id="xtick_25">
     <g id="line2d_114">
      <path d="M 1182.838235 238.28 
L 1182.838235 61.574879 
" clip-path="url(#pf5a5d20bd5)" style="fill: none; stroke: #b0b0b0; stroke-opacity: 0.3; stroke-width: 0.8; stroke-linecap: square"/>
     </g>
     <g id="line2d_115">
      <g>
       <use xlink:href="#m4f6e4b8db4" x="1182.838235" y="238.28" style="stroke: #000000; stroke-width: 0.8"/>
      </g>
     </g>
     <g id="text_60">
      <!-- 0 -->
      <g transform="translate(1179.656985 252.878437) scale(0.1 -0.1)">
       <use xlink:href="#DejaVuSans-30"/>
      </g>
     </g>
    </g>
    <g id="xtick_26">
     <g id="line2d_116">
      <path d="M 1224.400356 238.28 
L 1224.400356 61.574879 
" clip-path="url(#pf5a5d20bd5)" style="fill: none; stroke: #b0b0b0; stroke-opacity: 0.3; stroke-width: 0.8; stroke-linecap: square"/>
     </g>
     <g id="line2d_117">
      <g>
       <use xlink:href="#m4f6e4b8db4" x="1224.400356" y="238.28" style="stroke: #000000; stroke-width: 0.8"/>
      </g>
     </g>
     <g id="text_61">
      <!-- 5 -->
      <g transform="translate(1221.219106 252.878437) scale(0.1 -0.1)">
       <use xlink:href="#DejaVuSans-35"/>
      </g>
     </g>
    </g>
    <g id="xtick_27">
     <g id="line2d_118">
      <path d="M 1265.962477 238.28 
L 1265.962477 61.574879 
" clip-path="url(#pf5a5d20bd5)" style="fill: none; stroke: #b0b0b0; stroke-opacity: 0.3; stroke-width: 0.8; stroke-linecap: square"/>
     </g>
     <g id="line2d_119">
      <g>
       <use xlink:href="#m4f6e4b8db4" x="1265.962477" y="238.28" style="stroke: #000000; stroke-width: 0.8"/>
      </g>
     </g>
     <g id="text_62">
      <!-- 10 -->
      <g transform="translate(1259.599977 252.878437) scale(0.1 -0.1)">
       <use xlink:href="#DejaVuSans-31"/>
       <use xlink:href="#DejaVuSans-30" transform="translate(63.623047 0)"/>
      </g>
     </g>
    </g>
    <g id="xtick_28">
     <g id="line2d_120">
      <path d="M 1307.524598 238.28 
L 1307.524598 61.574879 
" clip-path="url(#pf5a5d20bd5)" style="fill: none; stroke: #b0b0b0; stroke-opacity: 0.3; stroke-width: 0.8; stroke-linecap: square"/>
     </g>
     <g id="line2d_121">
      <g>
       <use xlink:href="#m4f6e4b8db4" x="1307.524598" y="238.28" style="stroke: #000000; stroke-width: 0.8"/>
      </g>
     </g>
     <g id="text_63">
      <!-- 15 -->
      <g transform="translate(1301.162098 252.878437) scale(0.1 -0.1)">
       <use xlink:href="#DejaVuSans-31"/>
       <use xlink:href="#DejaVuSans-35" transform="translate(63.623047 0)"/>
      </g>
     </g>
    </g>
    <g id="xtick_29">
     <g id="line2d_122">
      <path d="M 1349.08672 238.28 
L 1349.08672 61.574879 
" clip-path="url(#pf5a5d20bd5)" style="fill: none; stroke: #b0b0b0; stroke-opacity: 0.3; stroke-width: 0.8; stroke-linecap: square"/>
     </g>
     <g id="line2d_123">
      <g>
       <use xlink:href="#m4f6e4b8db4" x="1349.08672" y="238.28" style="stroke: #000000; stroke-width: 0.8"/>
      </g>
     </g>
     <g id="text_64">
      <!-- 20 -->
      <g transform="translate(1342.72422 252.878437) scale(0.1 -0.1)">
       <use xlink:href="#DejaVuSans-32"/>
       <use xlink:href="#DejaVuSans-30" transform="translate(63.623047 0)"/>
      </g>
     </g>
    </g>
    <g id="xtick_30">
     <g id="line2d_124">
      <path d="M 1390.648841 238.28 
L 1390.648841 61.574879 
" clip-path="url(#pf5a5d20bd5)" style="fill: none; stroke: #b0b0b0; stroke-opacity: 0.3; stroke-width: 0.8; stroke-linecap: square"/>
     </g>
     <g id="line2d_125">
      <g>
       <use xlink:href="#m4f6e4b8db4" x="1390.648841" y="238.28" style="stroke: #000000; stroke-width: 0.8"/>
      </g>
     </g>
     <g id="text_65">
      <!-- 25 -->
      <g transform="translate(1384.286341 252.878437) scale(0.1 -0.1)">
       <use xlink:href="#DejaVuSans-32"/>
       <use xlink:href="#DejaVuSans-35" transform="translate(63.623047 0)"/>
      </g>
     </g>
    </g>
    <g id="text_66">
     <!-- Forecast step -->
     <g transform="translate(1257.3435 266.556562) scale(0.1 -0.1)">
      <use xlink:href="#DejaVuSans-46"/>
      <use xlink:href="#DejaVuSans-6f" transform="translate(53.894531 0)"/>
      <use xlink:href="#DejaVuSans-72" transform="translate(115.076172 0)"/>
      <use xlink:href="#DejaVuSans-65" transform="translate(153.939453 0)"/>
      <use xlink:href="#DejaVuSans-63" transform="translate(215.462891 0)"/>
      <use xlink:href="#DejaVuSans-61" transform="translate(270.443359 0)"/>
      <use xlink:href="#DejaVuSans-73" transform="translate(331.722656 0)"/>
      <use xlink:href="#DejaVuSans-74" transform="translate(383.822266 0)"/>
      <use xlink:href="#DejaVuSans-20" transform="translate(423.03125 0)"/>
      <use xlink:href="#DejaVuSans-73" transform="translate(454.818359 0)"/>
      <use xlink:href="#DejaVuSans-74" transform="translate(506.917969 0)"/>
      <use xlink:href="#DejaVuSans-65" transform="translate(546.126953 0)"/>
      <use xlink:href="#DejaVuSans-70" transform="translate(607.650391 0)"/>
     </g>
    </g>
   </g>
   <g id="matplotlib.axis_10">
    <g id="ytick_25">
     <g id="line2d_126">
      <path d="M 1181.17575 212.502582 
L 1400.62375 212.502582 
" clip-path="url(#pf5a5d20bd5)" style="fill: none; stroke: #b0b0b0; stroke-opacity: 0.3; stroke-width: 0.8; stroke-linecap: square"/>
     </g>
     <g id="line2d_127">
      <g>
       <use xlink:href="#mbf263a33ee" x="1181.17575" y="212.502582" style="stroke: #000000; stroke-width: 0.8"/>
      </g>
     </g>
     <g id="text_67">
      <!-- 0.5 -->
      <g transform="translate(1158.272625 216.301801) scale(0.1 -0.1)">
       <use xlink:href="#DejaVuSans-30"/>
       <use xlink:href="#DejaVuSans-2e" transform="translate(63.623047 0)"/>
       <use xlink:href="#DejaVuSans-35" transform="translate(95.410156 0)"/>
      </g>
     </g>
    </g>
    <g id="ytick_26">
     <g id="line2d_128">
      <path d="M 1181.17575 185.501346 
L 1400.62375 185.501346 
" clip-path="url(#pf5a5d20bd5)" style="fill: none; stroke: #b0b0b0; stroke-opacity: 0.3; stroke-width: 0.8; stroke-linecap: square"/>
     </g>
     <g id="line2d_129">
      <g>
       <use xlink:href="#mbf263a33ee" x="1181.17575" y="185.501346" style="stroke: #000000; stroke-width: 0.8"/>
      </g>
     </g>
     <g id="text_68">
      <!-- 1.0 -->
      <g transform="translate(1158.272625 189.300564) scale(0.1 -0.1)">
       <use xlink:href="#DejaVuSans-31"/>
       <use xlink:href="#DejaVuSans-2e" transform="translate(63.623047 0)"/>
       <use xlink:href="#DejaVuSans-30" transform="translate(95.410156 0)"/>
      </g>
     </g>
    </g>
    <g id="ytick_27">
     <g id="line2d_130">
      <path d="M 1181.17575 158.500109 
L 1400.62375 158.500109 
" clip-path="url(#pf5a5d20bd5)" style="fill: none; stroke: #b0b0b0; stroke-opacity: 0.3; stroke-width: 0.8; stroke-linecap: square"/>
     </g>
     <g id="line2d_131">
      <g>
       <use xlink:href="#mbf263a33ee" x="1181.17575" y="158.500109" style="stroke: #000000; stroke-width: 0.8"/>
      </g>
     </g>
     <g id="text_69">
      <!-- 1.5 -->
      <g transform="translate(1158.272625 162.299328) scale(0.1 -0.1)">
       <use xlink:href="#DejaVuSans-31"/>
       <use xlink:href="#DejaVuSans-2e" transform="translate(63.623047 0)"/>
       <use xlink:href="#DejaVuSans-35" transform="translate(95.410156 0)"/>
      </g>
     </g>
    </g>
    <g id="ytick_28">
     <g id="line2d_132">
      <path d="M 1181.17575 131.498873 
L 1400.62375 131.498873 
" clip-path="url(#pf5a5d20bd5)" style="fill: none; stroke: #b0b0b0; stroke-opacity: 0.3; stroke-width: 0.8; stroke-linecap: square"/>
     </g>
     <g id="line2d_133">
      <g>
       <use xlink:href="#mbf263a33ee" x="1181.17575" y="131.498873" style="stroke: #000000; stroke-width: 0.8"/>
      </g>
     </g>
     <g id="text_70">
      <!-- 2.0 -->
      <g transform="translate(1158.272625 135.298092) scale(0.1 -0.1)">
       <use xlink:href="#DejaVuSans-32"/>
       <use xlink:href="#DejaVuSans-2e" transform="translate(63.623047 0)"/>
       <use xlink:href="#DejaVuSans-30" transform="translate(95.410156 0)"/>
      </g>
     </g>
    </g>
    <g id="ytick_29">
     <g id="line2d_134">
      <path d="M 1181.17575 104.497636 
L 1400.62375 104.497636 
" clip-path="url(#pf5a5d20bd5)" style="fill: none; stroke: #b0b0b0; stroke-opacity: 0.3; stroke-width: 0.8; stroke-linecap: square"/>
     </g>
     <g id="line2d_135">
      <g>
       <use xlink:href="#mbf263a33ee" x="1181.17575" y="104.497636" style="stroke: #000000; stroke-width: 0.8"/>
      </g>
     </g>
     <g id="text_71">
      <!-- 2.5 -->
      <g transform="translate(1158.272625 108.296855) scale(0.1 -0.1)">
       <use xlink:href="#DejaVuSans-32"/>
       <use xlink:href="#DejaVuSans-2e" transform="translate(63.623047 0)"/>
       <use xlink:href="#DejaVuSans-35" transform="translate(95.410156 0)"/>
      </g>
     </g>
    </g>
    <g id="ytick_30">
     <g id="line2d_136">
      <path d="M 1181.17575 77.4964 
L 1400.62375 77.4964 
" clip-path="url(#pf5a5d20bd5)" style="fill: none; stroke: #b0b0b0; stroke-opacity: 0.3; stroke-width: 0.8; stroke-linecap: square"/>
     </g>
     <g id="line2d_137">
      <g>
       <use xlink:href="#mbf263a33ee" x="1181.17575" y="77.4964" style="stroke: #000000; stroke-width: 0.8"/>
      </g>
     </g>
     <g id="text_72">
      <!-- 3.0 -->
      <g transform="translate(1158.272625 81.295619) scale(0.1 -0.1)">
       <use xlink:href="#DejaVuSans-33"/>
       <use xlink:href="#DejaVuSans-2e" transform="translate(63.623047 0)"/>
       <use xlink:href="#DejaVuSans-30" transform="translate(95.410156 0)"/>
      </g>
     </g>
    </g>
    <g id="text_73">
     <!-- ISCE (×1000) -->
     <g transform="translate(1152.192937 183.632908) rotate(-90) scale(0.1 -0.1)">
      <defs>
       <path id="DejaVuSans-d7" d="M 4488 3438 
L 3059 2003 
L 4488 575 
L 4116 197 
L 2681 1631 
L 1247 197 
L 878 575 
L 2303 2003 
L 878 3438 
L 1247 3816 
L 2681 2381 
L 4116 3816 
L 4488 3438 
z
" transform="scale(0.015625)"/>
      </defs>
      <use xlink:href="#DejaVuSans-49"/>
      <use xlink:href="#DejaVuSans-53" transform="translate(29.492188 0)"/>
      <use xlink:href="#DejaVuSans-43" transform="translate(92.96875 0)"/>
      <use xlink:href="#DejaVuSans-45" transform="translate(162.792969 0)"/>
      <use xlink:href="#DejaVuSans-20" transform="translate(225.976562 0)"/>
      <use xlink:href="#DejaVuSans-28" transform="translate(257.763672 0)"/>
      <use xlink:href="#DejaVuSans-d7" transform="translate(296.777344 0)"/>
      <use xlink:href="#DejaVuSans-31" transform="translate(380.566406 0)"/>
      <use xlink:href="#DejaVuSans-30" transform="translate(444.189453 0)"/>
      <use xlink:href="#DejaVuSans-30" transform="translate(507.8125 0)"/>
      <use xlink:href="#DejaVuSans-30" transform="translate(571.435547 0)"/>
      <use xlink:href="#DejaVuSans-29" transform="translate(635.058594 0)"/>
     </g>
    </g>
   </g>
   <g id="line2d_138">
    <path d="M 1191.150659 207.934056 
L 1199.463083 162.926054 
L 1207.775508 180.273383 
L 1216.087932 227.538914 
L 1224.400356 194.293827 
L 1232.71278 214.540299 
L 1241.025205 174.641442 
L 1249.337629 128.207633 
L 1257.650053 203.894267 
L 1265.962477 224.853643 
L 1274.274902 223.689233 
L 1282.587326 203.418998 
L 1290.89975 196.693937 
L 1299.212174 185.335001 
L 1307.524598 223.570416 
L 1315.837023 218.2474 
L 1324.149447 213.44718 
L 1332.461871 217.677076 
L 1340.774295 219.530627 
L 1349.08672 211.641156 
L 1357.399144 214.112557 
L 1365.711568 208.789541 
L 1374.023992 186.618228 
L 1382.336417 173.334452 
L 1390.648841 226.018052 
" clip-path="url(#pf5a5d20bd5)" style="fill: none; stroke: #1f77b4; stroke-width: 2; stroke-linecap: square"/>
   </g>
   <g id="line2d_139">
    <path d="M 1191.150659 221.621811 
L 1199.463083 210.50051 
L 1207.775508 69.60693 
L 1216.087932 185.239947 
L 1224.400356 172.217569 
L 1232.71278 213.565997 
L 1241.025205 123.930209 
L 1249.337629 86.193828 
L 1257.650053 198.713832 
L 1265.962477 203.442761 
L 1274.274902 218.104819 
L 1282.587326 211.688683 
L 1290.89975 208.860831 
L 1299.212174 216.179978 
L 1307.524598 189.422317 
L 1315.837023 197.620712 
L 1324.149447 162.331968 
L 1332.461871 185.786507 
L 1340.774295 198.642541 
L 1349.08672 158.482287 
L 1357.399144 171.956171 
L 1365.711568 181.247685 
L 1374.023992 187.141025 
L 1382.336417 120.817196 
L 1390.648841 219.411809 
" clip-path="url(#pf5a5d20bd5)" style="fill: none; stroke: #0af1f1; stroke-width: 2; stroke-linecap: square"/>
   </g>
   <g id="line2d_140">
    <path d="M 1191.150659 214.540299 
L 1199.463083 217.486969 
L 1207.775508 86.597807 
L 1216.087932 199.759424 
L 1224.400356 152.636474 
L 1232.71278 214.968041 
L 1241.025205 147.384749 
L 1249.337629 117.157622 
L 1257.650053 216.560194 
L 1265.962477 222.049554 
L 1274.274902 215.443311 
L 1282.587326 209.835133 
L 1290.89975 216.679011 
L 1299.212174 197.858347 
L 1307.524598 228.988485 
L 1315.837023 208.551906 
L 1324.149447 191.275867 
L 1332.461871 209.88266 
L 1340.774295 201.304049 
L 1349.08672 154.038519 
L 1357.399144 195.862216 
L 1365.711568 213.043201 
L 1374.023992 187.188552 
L 1382.336417 194.483935 
L 1390.648841 230.247949 
" clip-path="url(#pf5a5d20bd5)" style="fill: none; stroke: #c71fd6; stroke-width: 2; stroke-linecap: square"/>
   </g>
   <g id="patch_24">
    <path d="M 1181.17575 238.28 
L 1181.17575 61.574879 
" style="fill: none; stroke: #000000; stroke-width: 0.8; stroke-linejoin: miter; stroke-linecap: square"/>
   </g>
   <g id="patch_25">
    <path d="M 1400.62375 238.28 
L 1400.62375 61.574879 
" style="fill: none; stroke: #000000; stroke-width: 0.8; stroke-linejoin: miter; stroke-linecap: square"/>
   </g>
   <g id="patch_26">
    <path d="M 1181.17575 238.28 
L 1400.62375 238.28 
" style="fill: none; stroke: #000000; stroke-width: 0.8; stroke-linejoin: miter; stroke-linecap: square"/>
   </g>
   <g id="patch_27">
    <path d="M 1181.17575 61.574879 
L 1400.62375 61.574879 
" style="fill: none; stroke: #000000; stroke-width: 0.8; stroke-linejoin: miter; stroke-linecap: square"/>
   </g>
  </g>
  <g id="text_74">
   <!-- Alanine $\varphi$ (Phi) (L/H=25) — Error Metrics -->
   <g transform="translate(559.01375 17.84) scale(0.14 -0.14)">
    <defs>
     <path id="DejaVuSans-Oblique-3c6" d="M 2969 3034 
Q 2766 3034 2675 2581 
L 2259 438 
Q 2553 438 2916 763 
Q 3244 1053 3375 1750 
Q 3497 2400 3300 2750 
Q 3138 3034 2969 3034 
z
M 3063 3525 
Q 3513 3525 3819 3113 
Q 4147 2672 3981 1750 
Q 3828 903 3291 400 
Q 2784 -75 2159 -75 
L 1916 -1331 
L 1344 -1331 
L 1588 -78 
Q 963 -78 641 400 
Q 309 888 475 1747 
Q 647 2641 1166 3097 
Q 1556 3438 2084 3525 
L 1984 3016 
Q 1766 2944 1538 2700 
Q 1194 2341 1081 1747 
Q 963 1116 1156 756 
Q 1334 434 1688 434 
L 2103 2581 
Q 2288 3525 3063 3525 
z
" transform="scale(0.015625)"/>
     <path id="DejaVuSans-68" d="M 3513 2113 
L 3513 0 
L 2938 0 
L 2938 2094 
Q 2938 2591 2744 2837 
Q 2550 3084 2163 3084 
Q 1697 3084 1428 2787 
Q 1159 2491 1159 1978 
L 1159 0 
L 581 0 
L 581 4863 
L 1159 4863 
L 1159 2956 
Q 1366 3272 1645 3428 
Q 1925 3584 2291 3584 
Q 2894 3584 3203 3211 
Q 3513 2838 3513 2113 
z
" transform="scale(0.015625)"/>
     <path id="DejaVuSans-4c" d="M 628 4666 
L 1259 4666 
L 1259 531 
L 3531 531 
L 3531 0 
L 628 0 
L 628 4666 
z
" transform="scale(0.015625)"/>
     <path id="DejaVuSans-2f" d="M 1625 4666 
L 2156 4666 
L 531 -594 
L 0 -594 
L 1625 4666 
z
" transform="scale(0.015625)"/>
     <path id="DejaVuSans-48" d="M 628 4666 
L 1259 4666 
L 1259 2753 
L 3553 2753 
L 3553 4666 
L 4184 4666 
L 4184 0 
L 3553 0 
L 3553 2222 
L 1259 2222 
L 1259 0 
L 628 0 
L 628 4666 
z
" transform="scale(0.015625)"/>
     <path id="DejaVuSans-3d" d="M 678 2906 
L 4684 2906 
L 4684 2381 
L 678 2381 
L 678 2906 
z
M 678 1631 
L 4684 1631 
L 4684 1100 
L 678 1100 
L 678 1631 
z
" transform="scale(0.015625)"/>
     <path id="DejaVuSansDisplay-2014" d="M 313 1978 
L 6088 1978 
L 6088 1528 
L 313 1528 
L 313 1978 
z
" transform="scale(0.015625)"/>
    </defs>
    <use xlink:href="#DejaVuSans-41" transform="translate(0 0.015625)"/>
    <use xlink:href="#DejaVuSans-6c" transform="translate(68.408203 0.015625)"/>
    <use xlink:href="#DejaVuSans-61" transform="translate(96.191406 0.015625)"/>
    <use xlink:href="#DejaVuSans-6e" transform="translate(157.470703 0.015625)"/>
    <use xlink:href="#DejaVuSans-69" transform="translate(220.849609 0.015625)"/>
    <use xlink:href="#DejaVuSans-6e" transform="translate(248.632812 0.015625)"/>
    <use xlink:href="#DejaVuSans-65" transform="translate(312.011719 0.015625)"/>
    <use xlink:href="#DejaVuSans-20" transform="translate(373.535156 0.015625)"/>
    <use xlink:href="#DejaVuSans-Oblique-3c6" transform="translate(405.322266 0.015625)"/>
    <use xlink:href="#DejaVuSans-20" transform="translate(471.289062 0.015625)"/>
    <use xlink:href="#DejaVuSans-28" transform="translate(503.076172 0.015625)"/>
    <use xlink:href="#DejaVuSans-50" transform="translate(542.089844 0.015625)"/>
    <use xlink:href="#DejaVuSans-68" transform="translate(602.392578 0.015625)"/>
    <use xlink:href="#DejaVuSans-69" transform="translate(665.771484 0.015625)"/>
    <use xlink:href="#DejaVuSans-29" transform="translate(693.554688 0.015625)"/>
    <use xlink:href="#DejaVuSans-20" transform="translate(732.568359 0.015625)"/>
    <use xlink:href="#DejaVuSans-28" transform="translate(764.355469 0.015625)"/>
    <use xlink:href="#DejaVuSans-4c" transform="translate(803.369141 0.015625)"/>
    <use xlink:href="#DejaVuSans-2f" transform="translate(859.082031 0.015625)"/>
    <use xlink:href="#DejaVuSans-48" transform="translate(891.023438 0.015625)"/>
    <use xlink:href="#DejaVuSans-3d" transform="translate(966.21875 0.015625)"/>
    <use xlink:href="#DejaVuSans-32" transform="translate(1050.007812 0.015625)"/>
    <use xlink:href="#DejaVuSans-35" transform="translate(1113.630859 0.015625)"/>
    <use xlink:href="#DejaVuSans-29" transform="translate(1177.253906 0.015625)"/>
    <use xlink:href="#DejaVuSans-20" transform="translate(1216.267578 0.015625)"/>
    <use xlink:href="#DejaVuSansDisplay-2014" transform="translate(1248.054688 0.015625)"/>
    <use xlink:href="#DejaVuSans-20" transform="translate(1348.054688 0.015625)"/>
    <use xlink:href="#DejaVuSans-45" transform="translate(1379.841797 0.015625)"/>
    <use xlink:href="#DejaVuSans-72" transform="translate(1443.025391 0.015625)"/>
    <use xlink:href="#DejaVuSans-72" transform="translate(1484.138672 0.015625)"/>
    <use xlink:href="#DejaVuSans-6f" transform="translate(1525.251953 0.015625)"/>
    <use xlink:href="#DejaVuSans-72" transform="translate(1586.433594 0.015625)"/>
    <use xlink:href="#DejaVuSans-20" transform="translate(1627.546875 0.015625)"/>
    <use xlink:href="#DejaVuSans-4d" transform="translate(1659.333984 0.015625)"/>
    <use xlink:href="#DejaVuSans-65" transform="translate(1745.613281 0.015625)"/>
    <use xlink:href="#DejaVuSans-74" transform="translate(1807.136719 0.015625)"/>
    <use xlink:href="#DejaVuSans-72" transform="translate(1846.345703 0.015625)"/>
    <use xlink:href="#DejaVuSans-69" transform="translate(1887.458984 0.015625)"/>
    <use xlink:href="#DejaVuSans-63" transform="translate(1915.242188 0.015625)"/>
    <use xlink:href="#DejaVuSans-73" transform="translate(1970.222656 0.015625)"/>
   </g>
  </g>
 </g>
 <defs>
  <clipPath id="p55437057c9">
   <rect x="50.14375" y="61.574879" width="219.448" height="176.705121"/>
  </clipPath>
  <clipPath id="p6c3c0ad194">
   <rect x="332.90175" y="61.574879" width="219.448" height="176.705121"/>
  </clipPath>
  <clipPath id="p070e40ead9">
   <rect x="615.65975" y="61.574879" width="219.448" height="176.705121"/>
  </clipPath>
  <clipPath id="p7ac4d358c5">
   <rect x="898.41775" y="61.574879" width="219.448" height="176.705121"/>
  </clipPath>
  <clipPath id="pf5a5d20bd5">
   <rect x="1181.17575" y="61.574879" width="219.448" height="176.705121"/>
  </clipPath>
 </defs>
</svg>
